
<svg width="406px" height="442px" viewBox="0 0 406 442" version="1.1" xmlns="http://www.w3.org/2000/svg" xmlns:xlink="http://www.w3.org/1999/xlink">
    <defs>
        <linearGradient x1="50%" y1="0%" x2="50%" y2="100%" id="linearGradient-1">
            <stop stop-color="#C62930" offset="0%"></stop>
            <stop stop-color="#E15133" offset="100%"></stop>
        </linearGradient>
    </defs>
    <g id="Page-1" stroke="none" stroke-width="1" fill="none" fill-rule="evenodd">
        <g id="Conspire-Agency--Final-Home" transform="translate(0.000000, -947.000000)">
            <path d="M78.1715313,968.934096 C69.378699,954.233552 49.4417341,946.067362 26.4345732,947.707419 C1.39942869,949.49204 -23.763302,962.362204 -42.9019124,985.003561 C-66.833327,1013.3149 -86.5669547,1044.90289 -94.6475711,1073.8124 C-105.76754,1113.59561 -93.5479782,1143.73008 -51.8934864,1160.50277 C-23.7353862,1171.84098 -7.70729878,1184.63425 2.25546907,1201.14182 C5.77470303,1206.97293 7.59502886,1211.03598 12.0920541,1222.21686 C17.7679787,1236.32882 21.3377825,1242.94602 28.351074,1250.21601 C37.453084,1259.65116 50.8769096,1267.11063 71.0025413,1273.16678 C122.606413,1288.69527 167.262687,1297.50342 200.846804,1297.20601 C241.944216,1296.84206 264.300562,1282.84837 264.300562,1252.91549 C264.300562,1192.58565 269.239332,1158.25802 283.466741,1109.65592 C296.245608,1066.00217 247.075933,1024.62286 192.890303,1034.44786 C165.329129,1039.44528 144.845746,1036.82732 127.133612,1026.03669 C110.470481,1015.88514 95.8191647,998.43879 78.1715313,968.934096 Z" id="Path-2" stroke="#D9D9D9"></path>
            <path d="M222.513218,1158.94828 C197.301495,1168.12459 170.543596,1187.58803 158.777314,1206.49936 C152.792589,1216.11829 151.000603,1224.83351 153.368836,1232.44689 C156.158259,1241.41431 164.932037,1250.08152 180.980865,1257.85852 C209.857335,1271.85159 227.159969,1292.33495 239.234537,1321.18918 C241.274525,1326.06408 243.155264,1331.11542 245.196228,1337.07035 C246.383803,1340.53535 250.287621,1352.38089 250.100492,1351.82 C258.903217,1378.20462 265.167314,1386.96296 279.430933,1389.45442 C288.840586,1391.09803 294.959211,1389.67456 299.973695,1385.55065 C304.549605,1381.78742 308.390189,1375.95345 314.029397,1364.74375 C314.887173,1363.03865 318.158764,1356.42553 317.873267,1357.00025 C319.50305,1353.71943 320.775495,1351.21827 322.085145,1348.75002 C333.284427,1327.64309 345.204602,1314.05639 364.003453,1305.23115 C386.451284,1294.69289 400.589351,1281.91498 406.18065,1268.78206 C410.938005,1257.60793 409.309304,1246.37116 401.537034,1236.14293 C395.577541,1228.30029 387.608625,1225.37322 366.202065,1221.87417 C353.794344,1219.84604 349.742457,1219.10221 343.246263,1217.43822 C329.397231,1213.89082 317.891276,1208.56859 307.60161,1200.09285 C303.840517,1196.99479 300.172843,1193.68854 296.294273,1189.94896 C292.662306,1186.44715 280.073596,1173.57374 277.211074,1170.83162 C268.509819,1162.49635 261.907009,1158.00062 254.635508,1155.8582 C246.054393,1153.32993 235.907761,1154.07306 222.513218,1158.94828 Z" id="Path-3-Copy" stroke="url(#linearGradient-1)" stroke-width="21" transform="translate(280.603130, 1272.275259) rotate(-70.000000) translate(-280.603130, -1272.275259) "></path>
        </g>
    </g>
</svg>