<svg height="512" viewBox="0 0 128 128" width="512" xmlns="http://www.w3.org/2000/svg"><g><g><path d="m87.5 94.5h-15c0-.881 4.158-20.7 14.43-37.025a3.083 3.083 0 0 1 4.358-.891 3.1 3.1 0 0 1 .939 4.022c-7.559 14.27-4.727 33.694-4.727 33.894z" fill="#95d70b"/><path d="m54.054 110.01c-.666-1.017-16.369-25.186-20.569-50.441-1.94-11.662-.994-23.068 2.663-32.118 4.6-11.392 13.263-18.684 24.384-20.533a31.432 31.432 0 0 1 25.509 7.163 8.968 8.968 0 0 1 -2.05 14.834 8.937 8.937 0 0 1 -9.686-1.209 13.343 13.343 0 0 0 -10.819-3.032c-3.131.52-7.64 2.074-10.649 9.521-2.4 5.933-2.979 14.1-1.6 22.421 3.567 21.449 17.728 43.313 17.871 43.531z" fill="#95d70b"/><rect fill="#95d70b" height="18" rx="9" width="97.308" x="15.346" y="103.5"/><rect fill="#95d70b" height="18" rx="9" width="79.615" x="24.192" y="85.5"/><circle cx="75.898" cy="16.583" fill="#ededf9" r="3"/><g fill="#90c202"><path d="m45.42 120.87c0 .21-.01.43-.03.63h-11.94c-.02-.2-.03-.42-.03-.63a6 6 0 0 1 12 0z"/><path d="m99.1 106.5a6 6 0 0 1 -12 0 5.857 5.857 0 0 1 .81-3h10.38a5.857 5.857 0 0 1 .81 3z"/><path d="m63.669 103.81a9 9 0 0 1 -18 0c0-.1 0-.21.01-.31h17.98c.01.1.01.21.01.31z"/><path d="m45.42 34.25a9 9 0 0 1 -9 9 8.765 8.765 0 0 1 -3.69-.8 51.547 51.547 0 0 1 3.42-15c.3-.74.62-1.46.95-2.17a8.994 8.994 0 0 1 8.32 8.97z"/><path d="m81.8 101.5a5.8 5.8 0 0 1 -.35 2h-11.3a5.8 5.8 0 0 1 -.35-2 6 6 0 0 1 12 0z"/><path d="m56.34 74.64a5.995 5.995 0 1 1 -3.65-11.28 106.178 106.178 0 0 0 3.65 11.28z"/><path d="m91.55 120.87a3.218 3.218 0 0 1 -.05.63h-8.9a4.232 4.232 0 0 1 -.05-.63 4.5 4.5 0 0 1 9 0z"/></g></g><g><path d="m36.687 74.647a1.721 1.721 0 0 0 .517-.078 1.749 1.749 0 0 0 1.155-2.188q-.483-1.567-.927-3.159a1.75 1.75 0 1 0 -3.372.937q.456 1.639.956 3.255a1.749 1.749 0 0 0 1.671 1.233z"/><path d="m103.654 101.75h-.932a10.732 10.732 0 0 0 -7.914-18h-17.734a111.331 111.331 0 0 1 11.337-25.35 1.315 1.315 0 0 1 .852-.587 1.356 1.356 0 0 1 1.038.209 1.294 1.294 0 0 1 .549 1.087 1.478 1.478 0 0 1 -.166.682 48.963 48.963 0 0 0 -4.992 17.393 1.751 1.751 0 0 0 3.479.394 45.5 45.5 0 0 1 4.612-16.161 4.954 4.954 0 0 0 .567-2.308 4.8 4.8 0 0 0 -2.069-3.972 4.876 4.876 0 0 0 -3.725-.751 4.778 4.778 0 0 0 -3.108 2.151 116.044 116.044 0 0 0 -12.039 27.213h-11.243c-4.733-9.994-7.837-19.218-9.2-27.416-1.33-8.016-.785-15.844 1.5-21.479 2.654-6.566 6.372-7.969 9.314-8.459a11.517 11.517 0 0 1 9.393 2.649 10.664 10.664 0 0 0 6.887 2.515 10.908 10.908 0 0 0 4.691-1.074c.061-.029.116-.068.177-.1a32.483 32.483 0 0 1 2.541 3.877l-1.364 2.668a1.751 1.751 0 0 0 3.118 1.593l1.113-2.179 2.343.7a1.751 1.751 0 0 0 1.006-3.345l-3.034-.909a35.681 35.681 0 0 0 -2.9-4.468 10.788 10.788 0 0 0 3.01-6.184 10.516 10.516 0 0 0 -3.585-9.384 33.023 33.023 0 0 0 -26.933-7.562c-11.743 1.954-20.879 9.626-25.716 21.601-3.773 9.331-4.758 21.073-2.773 33.063.281 1.69.623 3.438 1.019 5.2a1.75 1.75 0 1 0 3.414-.77c-.38-1.692-.71-3.374-.98-5a68.709 68.709 0 0 1 -.882-14.5 10.555 10.555 0 0 0 2.095.213 10.742 10.742 0 0 0 3.286-20.971c4.64-8.46 12-13.868 21.112-15.383a29.534 29.534 0 0 1 24.082 6.764 6.941 6.941 0 0 1 2.388 6.275 7.281 7.281 0 0 1 -4.058 5.647 7.366 7.366 0 0 1 -7.8-.951 15.008 15.008 0 0 0 -12.23-3.438c-5.556.924-9.477 4.392-11.985 10.6s-3.136 14.729-1.7 23.363c.284 1.708.66 3.469 1.086 5.257a7.74 7.74 0 0 0 4.73 14.67q1.353 3.394 2.975 6.916h-15.827c-.831-2.024-1.621-4.043-2.328-6.012a1.75 1.75 0 0 0 -3.294 1.182c.57 1.586 1.2 3.2 1.846 4.83h-5.511a10.732 10.732 0 0 0 -7.914 18h-.932a10.75 10.75 0 0 0 0 21.5h31.529a1.75 1.75 0 0 0 0-3.5h-8.8a7.74 7.74 0 0 0 -15.32 0h-7.409a7.25 7.25 0 0 1 0-14.5h19.681a10.737 10.737 0 0 0 21.284 0h20.156a7.433 7.433 0 0 0 -.118 1.25 7.75 7.75 0 0 0 15.5 0 7.442 7.442 0 0 0 -.117-1.25h2.922a7.25 7.25 0 0 1 0 14.5h-10.46a6.244 6.244 0 0 0 -12.288 0h-15.906a1.75 1.75 0 0 0 0 3.5h38.654a10.75 10.75 0 0 0 0-21.5zm-59.984-67.5a7.215 7.215 0 0 1 -9.07 7.008 49.19 49.19 0 0 1 3.17-13.153c.122-.3.258-.589.386-.885a7.268 7.268 0 0 1 5.514 7.03zm10 39.27a4.247 4.247 0 0 1 -2.172-7.9q1.073 3.824 2.545 7.855c-.125.012-.243.045-.373.045zm-14.25 43.1a4.244 4.244 0 0 1 4.081 3.13h-8.162a4.244 4.244 0 0 1 4.081-3.13zm-13.478-22.12a7.258 7.258 0 0 1 7.25-7.25h61.616a7.25 7.25 0 0 1 0 14.5h-11.277c0-.084.018-.166.018-.25a7.75 7.75 0 0 0 -15.5 0c0 .084.014.166.017.25h-34.874a7.258 7.258 0 0 1 -7.25-7.25zm45.628 7.25c0-.084-.021-.165-.021-.25a4.25 4.25 0 0 1 8.5 0c0 .085-.017.166-.022.25zm-16.9 9.31a7.261 7.261 0 0 1 -7.1-5.81h14.21a7.262 7.262 0 0 1 -7.111 5.81zm42.68-4.56a4.25 4.25 0 0 1 -8.5 0 4.2 4.2 0 0 1 .192-1.25h8.115a4.21 4.21 0 0 1 .192 1.25zm-10.3 11.62a2.75 2.75 0 0 1 2.506 1.63h-5.012a2.75 2.75 0 0 1 2.506-1.63z"/><path d="m46.688 89.75h-5.5a1.75 1.75 0 1 0 0 3.5h5.5a1.75 1.75 0 0 0 0-3.5z"/><path d="m80.648 16.583a4.75 4.75 0 1 0 -4.75 4.75 4.755 4.755 0 0 0 4.75-4.75zm-6 0a1.25 1.25 0 1 1 1.25 1.25 1.252 1.252 0 0 1 -1.25-1.25z"/></g></g></svg>