<svg height="498pt" viewBox="-3 0 498 498.568" width="498pt" xmlns="http://www.w3.org/2000/svg"><path d="m333.226562 418.566406h-144v72h-48l-41.4375-71.039062c-7.199218-12.320313-11.847656-26-13.601562-40.078125-.640625-4.5625-.960938-9.203125-.960938-13.839844 0-24.882813 8.480469-47.761719 22.722657-65.921875 19.597656-25.039062 50.078125-41.121094 84.320312-41.121094h34.558594c13.28125 0 26.238281-3.199218 37.761719-9.117187 11.4375-5.921875 21.597656-14.5625 29.277344-25.359375 8.082031-11.28125 13.121093-24.320313 14.722656-37.921875.398437-3.28125.636718-6.640625.636718-10v-85.601563c0-11.039062 4.480469-21.039062 11.679688-28.320312 7.28125-7.199219 17.28125-11.679688 28.320312-11.679688l1.839844-7.4375c1.914063-7.601562 5.679688-14.5625 10.875-20.160156 5.207032-5.601562 11.765625-9.921875 19.285156-12.402344h8l-8 40 8 .082032c4.960938.320312 9.761719 1.359374 14.320313 3.359374h.082031c5.519532 2.160157 10.558594 5.519532 14.878906 9.839844 0 0 3.679688 3.679688 9.359376 9.359375 11.441406 11.441407 31.039062 31.039063 44.082031 44.082031 8.558593 8.558594 13.277343 20 13.277343 32.160157v.71875c0 24.558593-19.847656 44.398437-44.398437 44.398437h-.878906c-12 0-23.511719-4.796875-32-13.277344l-23.359375-23.359374 24.636718 141.4375c2.640626 15.441406 4 31.121093 4 46.722656 0 21.199218-2.480468 42.238281-7.277343 62.71875-4.875 20.480468-12.082031 40.480468-21.511719 59.359375l-11.210938 22.398437h-40zm0 0" fill="#f5f7fa"/><path d="m469.226562 18.566406-41.359374 54.640625c-5.679688-5.679687-9.359376-9.359375-9.359376-9.359375-4.320312-4.320312-9.359374-7.679687-14.878906-9.839844l57.597656-43.441406zm0 0" fill="#fcd770"/><path d="m267.378906 148.089844c-12.070312-15.683594-22.152344-35.363282-22.152344-57.523438 0-56 76-68 104-40-11.039062 0-21.039062 4.480469-28.320312 11.679688-7.199219 7.28125-11.679688 17.28125-11.679688 28.320312v85.601563c0 3.359375-.238281 6.71875-.636718 10-3.761719-2.480469-24.480469-16.480469-41.210938-38.078125zm0 0" fill="#ffeaa7"/><path d="m308.589844 186.167969c-1.601563 13.601562-6.640625 26.640625-14.722656 37.921875-7.679688 10.796875-17.847657 19.4375-29.277344 25.359375-11.523438 5.917969-24.480469 9.117187-37.761719 9.117187h-15.449219c-8.472656-10.878906-15.910156-23.757812-19.589844-38-1.679687-6.238281-2.5625-12.71875-2.5625-19.4375 0-42.960937 44.640626-60.082031 78.152344-53.039062 16.730469 21.597656 37.449219 35.597656 41.210938 38.078125zm0 0" fill="#ff826e"/><path d="m211.378906 258.566406h-19.117187c-34.242188 0-64.722657 16.082032-84.320313 41.121094l-5.761718-12.960938c-2-4.398437-4.808594-8.238281-8.238282-11.359374-.472656-3.359376-.714844-6.800782-.714844-10.238282 0-52.722656 67.28125-66.480468 98.5625-44.5625 3.679688 14.242188 11.117188 27.121094 19.589844 38zm0 0" fill="#ffeaa7"/><path d="m102.1875 286.726562 5.761719 12.960938c-14.242188 18.160156-22.722657 41.039062-22.722657 65.921875 0 4.636719.320313 9.277344.960938 13.839844h-.078125c-13.441406 23.757812-38.882813 39.117187-67.121094 39.117187h-5.761719c7.839844-15.839844 13.921876-32.398437 17.921876-49.4375 4-17.121094 6.078124-34.5625 6.078124-52.242187v-16.398438c0-18.71875 15.203126-33.921875 33.921876-33.921875 6.71875 0 13.121093 2 18.550781 5.523438 1.519531.957031 2.878906 2.078125 4.242187 3.277344 3.4375 3.121093 6.246094 6.960937 8.246094 11.359374zm0 0" fill="#ff826e"/><path d="m109.226562 365.625c0 11.039062 2.167969 21.824219 6.433594 32.03125l14.769532-6.167969c-3.449219-8.257812-5.203126-16.953125-5.203126-25.863281 0-36.976562 30.082032-67.058594 67.058594-67.058594h4.941406v-16h-4.941406c-45.800781 0-83.058594 37.257813-83.058594 83.058594zm0 0"/><path d="m124.683594 414.609375 13.828125-8.0625 9.613281 16.488281-13.828125 8.0625zm0 0"/><path d="m477.644531 111.671875-39.160156-39.167969 41.335937-54.664062-17.847656-17.839844-59.808594 45.105469c-3.617187-1.113281-7.328124-1.976563-11.207031-2.328125l8.03125-40.210938h-19.054687l-1.234375.410156c-16.335938 5.449219-28.800781 18.152344-34.136719 34.328126-18.550781-10.761719-45.628906-12.441407-68.445312-2.992188-24.722657 10.238281-38.890626 30.742188-38.890626 56.253906 0 17.777344 5.867188 33.984375 14.128907 48.007813-17.917969.226562-35.757813 6.089843-48.566407 16.480469-14.105468 11.457031-21.5625 27.371093-21.5625 46.042968 0 1.871094.144532 3.742188.273438 5.613282-19.503906-6.695313-43.832031-5.246094-63.289062 4.890624-20.054688 10.4375-31.480469 27.984376-32.726563 49.589844-4.527344-1.648437-9.328125-2.625-14.3125-2.625-23.121094 0-41.945313 18.816406-41.945313 41.945313v16.390625c0 33.867187-8.007812 67.785156-23.160156 98.089844l-5.78125 11.574218h18.703125c24.3125 0 47.105469-10.542968 63.070313-28.167968 2.609375 8.769531 6.203125 17.25 10.839844 25.203124l43.738281 74.964844h60.589843v-72h128v72h52.945313l13.390625-26.78125c19.410156-38.808594 29.664062-82.265625 29.664062-125.65625 0-16.089844-1.398437-32.289062-4.160156-48.144531l-20.261718-116.519531 5.511718 5.511718c10.0625 10.054688 23.421875 15.589844 37.648438 15.589844h.871094c13.992187 0 27.152343-5.445312 37.046874-15.335937 9.890626-9.894531 15.34375-23.046875 15.34375-37.757813 0-14.328125-5.535156-27.761718-15.582031-37.800781zm-24.6875-84.847656-25.898437 34.246093-2.910156-2.910156c-1.871094-1.871094-3.929688-3.503906-6.039063-5.0625zm-170.714843 22.273437c15.027343-6.226562 32.625-6.449218 46.3125-1.683594-16.109376 7.753907-27.328126 24.105469-27.328126 43.152344v80.28125c-17.636718-14.128906-48-43.75-48-80.28125 0-25.621094 18.175782-36.980468 29.015626-41.46875zm-69.375 118.382813c12.871093-10.449219 32.359374-14.960938 50.359374-11.945313 13.585938 16.792969 28.882813 28.785156 36.601563 34.296875-1.976563 10.582031-6.105469 20.65625-12.464844 29.574219-13.933593 19.515625-36.566406 31.160156-60.542969 31.160156h-11.390624c-12.035157-16.535156-18.203126-33.160156-18.203126-49.46875 0-13.882812 5.265626-25.195312 15.640626-33.617187zm-87.269532 58.3125c18.664063-9.730469 43.582032-9.527344 59.398438.054687 2.488281 8.28125 6.257812 16.535156 11.222656 24.71875h-3.933594c-32.113281 0-61.160156 13.257813-82.058594 34.546875l-.726562-1.640625c-1.945312-4.367187-4.640625-8.226562-7.808594-11.59375-.222656-2.269531-.464844-4.550781-.464844-6.78125 0-22 13.25-33.523437 24.371094-39.304687zm-99.664062 184.421875c12.65625-29.359375 19.292968-61.351563 19.292968-93.3125v-16.390625c0-14.304688 11.640626-25.945313 25.945313-25.945313 10.230469 0 19.535156 6.050782 23.703125 15.402344l3.921875 8.832031c-13.519531 18.863281-21.570313 41.894531-21.570313 66.824219 0 3.976562.265626 7.917969.679688 11.855469-11.308594 18.449219-30.597656 30.574219-51.972656 32.734375zm440.636718-234.304688c-.757812.753906-1.628906 1.328125-2.445312 2.011719-10.792969-2.378906-18.898438-12.042969-18.898438-23.355469h-16c0 12.714844 6.144532 24.226563 15.664063 31.609375-1.351563.152344-2.679687.390625-4.054687.390625h-.871094c-9.945313 0-19.296875-3.878906-26.328125-10.902344l-53.496094-53.503906c-6.449219-6.433594-10.296875-14.984375-10.839844-24.070312l-15.96875.957031c.785157 13 6.289063 25.234375 15.503907 34.433594l28.320312 28.320312 24.160156 138.925781c2.597656 14.953126 3.917969 30.226563 3.917969 45.402344 0 40.917969-9.671875 81.894532-27.972656 118.496094l-8.976563 17.941406h-27.058594v-144h-16v72h-118.742187c14.703125-19.972656 22.742187-43.972656 22.742187-69.253906v-2.746094h-16v2.746094c0 27.046875-10.527343 52.480469-29.65625 71.597656l-2.34375 2.347656v67.308594h-35.40625l-39.105468-67.03125c-8.824219-15.128906-13.488282-32.382812-13.488282-49.910156 0-54.617188 44.441407-99.058594 99.058594-99.058594h34.535156c29.136719 0 56.632813-14.152344 73.558594-37.855468 11.023438-15.421876 16.839844-33.597657 16.839844-52.550782v-85.59375c0-17.644531 14.351562-32 32-32h6.242188l3.382812-13.511718c2.777344-11.085938 10.214844-20.160157 20.328125-25.03125l-7.695313 38.457031 17.253907.167969c9.089843.550781 17.640625 4.40625 24.089843 10.839843l53.503907 53.503907c7.039062 7.015624 10.902343 16.421874 10.902343 27.191406 0 9.71875-3.789062 18.863281-10.65625 25.726562zm0 0"/><path d="m373.226562 346.128906c0 15.605469-1.605468 31.359375-4.789062 46.832032l15.671875 3.214843c3.398437-16.519531 5.117187-33.359375 5.117187-50.046875 0-14.226562-1.230468-28.578125-3.679687-42.664062l-9.4375-54.273438-15.769531 2.746094 9.441406 54.269531c2.285156 13.175781 3.445312 26.609375 3.445312 39.921875zm0 0"/><path d="m380.125 412.703125-15.425781-4.261719c-1.429688 5.167969-3.070313 10.367188-4.863281 15.46875l15.097656 5.320313c1.917968-5.445313 3.664062-11.007813 5.191406-16.527344zm0 0"/><path d="m421.226562 98.566406c0 4.417969-3.582031 8-8 8-4.417968 0-8-3.582031-8-8 0-4.417968 3.582032-8 8-8 4.417969 0 8 3.582032 8 8zm0 0"/></svg>