<svg height="512pt" viewBox="-66 0 512 512.001" width="512pt" xmlns="http://www.w3.org/2000/svg"><path d="m61.242188 295.109375c-5.230469-2.429687-30.210938 26.636719-32.976563 30.003906-6.449219 7.847657-12.136719 16.511719-15.988281 25.9375-2.015625 4.933594-3.574219 10.085938-4.316406 15.378907-5.402344 38.402343 37.222656 66.414062 67.554687 37.777343 10.125-9.5625 12.332031-19.875 16.027344-32.535156 5.351562-18.34375 10.707031-36.6875 16.058593-55.03125-.003906 0-46.359374-21.53125-46.359374-21.53125zm0 0" fill="#c78e7a"/><path d="m319.742188 295.109375c5.230468-2.429687 30.210937 26.636719 32.976562 30.003906 6.445312 7.847657 12.132812 16.511719 15.988281 25.9375 2.015625 4.933594 3.574219 10.085938 4.316407 15.378907 5.398437 38.402343-37.226563 66.414062-67.554688 37.777343-10.125-9.5625-12.335938-19.875-16.03125-32.535156-5.351562-18.34375-10.703125-36.6875-16.054688-55.03125 0 0 46.355469-21.53125 46.359376-21.53125zm0 0" fill="#c78e7a"/><path d="m338.804688 415.507812c11.648437-8.828124 19.058593-24.089843 16.617187-41.484374-.75-5.296876-2.300781-10.449219-4.320313-15.375-3.851562-9.433594-9.546874-18.09375-15.992187-25.945313-2.566406-3.128906-24.34375-28.480469-31.601563-30.058594 8.867188-4.117187 16.238282-7.535156 16.238282-7.535156 5.222656-2.429687 30.203125 26.632813 32.976562 30 6.441406 7.851563 12.128906 16.511719 15.976563 25.945313 2.023437 4.9375 3.582031 10.078124 4.324219 15.375 3.527343 25.144531-13.519532 45.832031-34.21875 49.078124zm0 0" fill="#bd7c63"/><path d="m310.6875 369.054688c-2.136719-5.890626-18.027344-49.195313-26.511719-49.195313-.046875 0-187.324219 0-187.367187 0-8.488282 0-24.375 43.304687-26.515625 49.195313-12.414063 34.179687-19.25 86.558593 12.558593 113.035156 25.832032 21.5 64.269532 23.183594 96.277344 22.1875h22.726563c32.007812.996094 70.445312-.6875 96.277343-22.1875 31.808594-26.476563 24.96875-78.855469 12.554688-113.035156zm0 0" fill="#945b44"/><g fill="#87523e"><path d="m171.460938 504.289062c1.3125.039063 2.644531.070313 3.976562.097657-6.386719.152343-12.996094.160156-19.671875-.097657zm0 0"/><path d="m298.132812 482.09375c-25.835937 21.492188-64.269531 23.175781-96.28125 22.1875h-6.628906c25.730469-1.003906 52.496094-5.929688 72.035156-22.1875 31.808594-26.480469 24.972657-78.863281 12.554688-113.039062-2.136719-5.890626-18.023438-49.191407-26.511719-49.191407h30.871094c8.488281 0 24.378906 43.300781 26.523437 49.191407 12.40625 34.175781 19.242188 86.558593-12.5625 113.039062zm0 0"/><path d="m195.105469 504.289062c-6.675781.257813-13.28125.25-19.667969.097657 1.328125-.027344 2.660156-.058594 3.972656-.097657zm0 0"/></g><path d="m370.691406 70.128906c0 34.585938-28.035156 62.621094-62.621094 62.621094-34.582031 0-62.621093-28.035156-62.621093-62.621094 0-34.585937 28.039062-62.621094 62.621093-62.621094 34.585938 0 62.621094 28.035157 62.621094 62.621094zm0 0" fill="#ac6a51"/><path d="m370.691406 70.128906c0 34.585938-28.039062 62.621094-62.625 62.621094-11.949218 0-23.121094-3.351562-32.628906-9.15625 4.390625.980469 8.949219 1.488281 13.632812 1.488281 34.582032 0 62.621094-28.035156 62.621094-62.621093 0-22.632813-12.003906-42.449219-29.988281-53.460938 28.027344 6.214844 48.988281 31.230469 48.988281 61.128906zm0 0" fill="#87523e"/><path d="m336.238281 73.609375c0 17.476563-14.167969 31.648437-31.648437 31.648437-17.476563 0-31.648438-14.171874-31.648438-31.648437 0-17.480469 14.171875-31.648437 31.648438-31.648437 17.480468 0 31.648437 14.167968 31.648437 31.648437zm0 0" fill="#fff5f5"/><path d="m336.238281 73.613281c0 17.476563-14.164062 31.640625-31.644531 31.640625-9.839844 0-18.625-4.484375-24.433594-11.519531 1.703125.28125 3.453125.429687 5.246094.429687 17.476562 0 31.652344-14.175781 31.652344-31.652343 0-7.636719-2.714844-14.644531-7.21875-20.117188 14.984375 2.5 26.398437 15.523438 26.398437 31.21875zm0 0" fill="#efe2dd"/><path d="m135.53125 70.128906c0 34.585938-28.035156 62.621094-62.621094 62.621094-34.582031 0-62.617187-28.035156-62.617187-62.621094 0-34.585937 28.035156-62.621094 62.617187-62.621094 34.585938 0 62.621094 28.035157 62.621094 62.621094zm0 0" fill="#ac6a51"/><path d="m10.292969 70.128906c0 34.585938 28.035156 62.621094 62.621093 62.621094 11.953126 0 23.121094-3.351562 32.632813-9.15625-4.394531.980469-8.949219 1.488281-13.632813 1.488281-34.585937 0-62.621093-28.035156-62.621093-62.621093-.003907-22.628907 12-42.449219 29.988281-53.460938-28.027344 6.214844-48.988281 31.230469-48.988281 61.128906zm0 0" fill="#87523e"/><path d="m108.039062 73.609375c0 17.476563-14.167968 31.648437-31.648437 31.648437-17.476563 0-31.644531-14.171874-31.644531-31.648437 0-17.480469 14.167968-31.648437 31.644531-31.648437 17.480469 0 31.648437 14.167968 31.648437 31.648437zm0 0" fill="#fff5f5"/><path d="m44.746094 73.613281c0 17.476563 14.164062 31.640625 31.640625 31.640625 9.839843 0 18.628906-4.484375 24.433593-11.519531-1.699218.28125-3.453124.429687-5.242187.429687-17.480469 0-31.652344-14.175781-31.652344-31.652343 0-7.636719 2.710938-14.644531 7.214844-20.117188-14.984375 2.5-26.394531 15.523438-26.394531 31.21875zm0 0" fill="#efe2dd"/><path d="m129.96875 504.492188h-23.050781c-18.679688 0-33.820313-15.140626-33.820313-33.820313v-13.507813c0-18.679687 15.140625-33.820312 33.820313-33.820312h23.050781c18.675781 0 33.820312 15.140625 33.820312 33.820312v13.507813c0 18.679687-15.144531 33.820313-33.820312 33.820313zm0 0" fill="#c78e7a"/><path d="m274.0625 504.492188h-23.046875c-18.679687 0-33.820313-15.140626-33.820313-33.820313v-13.507813c0-18.679687 15.140626-33.820312 33.820313-33.820312h23.046875c18.679688 0 33.820312 15.140625 33.820312 33.820312v13.507813c0 18.679687-15.140624 33.820313-33.820312 33.820313zm0 0" fill="#c78e7a"/><path d="m163.785156 457.164062v13.507813c0 18.679687-15.136718 33.816406-33.816406 33.816406h-23.050781c18.484375-.226562 33.40625-15.28125 33.40625-33.816406v-13.507813c0-18.535156-14.921875-33.601562-33.40625-33.828124h23.050781c18.679688 0 33.816406 15.148437 33.816406 33.828124zm0 0" fill="#bd7c63"/><path d="m307.882812 457.164062v13.507813c0 18.679687-15.140624 33.816406-33.820312 33.816406h-23.050781c18.484375-.226562 33.40625-15.28125 33.40625-33.816406v-13.507813c0-18.535156-14.921875-33.601562-33.40625-33.828124h23.050781c18.679688 0 33.820312 15.148437 33.820312 33.828124zm0 0" fill="#bd7c63"/><path d="m359.328125 184.53125c-3.652344-26.304688-13.011719-52.015625-27.691406-74.1875-22.207031-33.53125-57.402344-55.25-97.148438-60.917969-28.152343-4.011719-59.992187-3.984375-87.996093 0-39.746094 5.667969-74.941407 27.386719-97.148438 60.917969-14.679688 22.171875-24.039062 47.882812-27.695312 74.1875-1.875 13.5-2.242188 27.234375-.855469 40.804688 4.019531 39.320312 21.382812 67.75 58.078125 85.542968 17.328125 8.402344 36.324218 13.136719 55.359375 15.636719 37.066406 4.867187 75.464843 4.871094 112.519531 0 19.03125-2.5 38.027344-7.234375 55.355469-15.636719 35.109375-17.027344 54.160156-47.191406 58.078125-85.542968 1.390625-13.570313 1.019531-27.304688-.855469-40.804688zm0 0" fill="#c78e7a"/><path d="m360.183594 225.339844c-3.917969 38.34375-22.964844 68.515625-58.074219 85.542968-17.332031 8.398438-36.324219 13.136719-55.359375 15.628907-22.730469 2.988281-45.96875 4.144531-69.101562 3.460937 14.554687-.425781 29.058593-1.582031 43.363281-3.460937 19.03125-2.492188 38.027343-7.230469 55.359375-15.628907 35.109375-17.027343 54.160156-47.199218 58.078125-85.542968 1.386719-13.574219 1.019531-27.304688-.859375-40.808594-3.652344-26.304688-13.007813-52.015625-27.691406-74.1875-22.207032-33.535156-57.40625-55.25-97.148438-60.917969-10.019531-1.425781-20.515625-2.347656-31.140625-2.75 19.152344-.742187 38.78125.175781 56.875 2.75 39.75 5.667969 74.945313 27.382813 97.144531 60.917969 14.683594 22.171875 24.039063 47.882812 27.699219 74.1875 1.871094 13.503906 2.25 27.234375.855469 40.808594zm0 0" fill="#bd7c63"/><path d="m197.644531 202.125c-4.253906-1.414062-8.886719-1.480469-13.179687-.191406-18.71875 5.621094-34.976563 19.777344-43.171875 36.5625-3.925781 8.042968-6.152344 16.992187-5.25 25.859375.957031 9.421875 5.625 18.136719 12.636719 24.949219 23.394531 22.753906 63.855468 20.808593 85.683593-2.609376 25.320313-27.160156-.238281-72.441406-36.71875-84.570312zm0 0" fill="#fff5f5"/><path d="m234.363281 286.691406c-14.261719 15.296875-36.472656 21.4375-56.695312 17.5 12.238281-2.351562 23.773437-8.25 32.390625-17.5 24.128906-25.867187 2.066406-68.179687-31.605469-82.621094 1.96875-.8125 3.976563-1.523437 6.011719-2.136718 4.292968-1.289063 8.925781-1.21875 13.179687.195312 36.484375 12.128906 62.035157 57.410156 36.71875 84.5625zm0 0" fill="#efe2dd"/><path d="m211.28125 185.671875c-9.492188-2.207031-20.789062-1.710937-20.789062-1.710937s-11.296876-.496094-20.789063 1.710937c-8.113281 1.882813-12.148437 11.003906-8.324219 18.398437 4.734375 9.160157 13.84375 21.285157 29.113282 22.101563 15.265624-.816406 24.378906-12.941406 29.113281-22.101563 3.824219-7.394531-.214844-16.515624-8.324219-18.398437zm0 0" fill="#766e6e"/><path d="m219.605469 204.070312c-4.738281 9.160157-13.851563 21.289063-29.113281 22.097657-2.980469-.15625-5.71875-.742188-8.242188-1.660157 10.417969-3.769531 17.066406-13.070312 20.882812-20.4375 3.820313-7.390624-.21875-16.511718-8.328124-18.402343-4.207032-.976563-8.765626-1.425781-12.546876-1.621094 4.742188-.238281 8.234376-.089844 8.234376-.089844s11.296874-.496093 20.792968 1.710938c8.101563 1.890625 12.148438 11.011719 8.320313 18.402343zm0 0" fill="#5b5555"/><path d="m380.457031 365.386719c-.78125-5.5625-2.351562-11.175781-4.800781-17.175781-3.78125-9.246094-9.546875-18.621094-17.136719-27.863282-1.359375-1.652344-8.472656-9.988281-16.007812-17.667968-2.414063-2.460938-4.597657-4.582032-6.605469-6.410157 17.996094-17.835937 28.828125-41.574219 31.75-70.167969 1.414062-13.839843 1.113281-28.171874-.890625-42.601562-2.765625-19.902344-8.652344-39.199219-17.242187-56.859375 17.371093-12.777344 28.675781-33.339844 28.675781-56.507813 0-38.671874-31.460938-70.132812-70.128907-70.132812-29.175781 0-54.226562 17.921875-64.777343 43.324219-2.5625-.503907-5.144531-.957031-7.746094-1.328125-28.617187-4.082032-61.464844-4.082032-90.113281 0-2.589844.367187-5.15625.804687-7.707032 1.304687-2.3125-5.578125-5.355468-10.878906-9.117187-15.789062-2.523437-3.292969-7.234375-3.914063-10.523437-1.394531-3.292969 2.523437-3.917969 7.234374-1.394532 10.527343 2.488282 3.246094 4.578125 6.714844 6.261719 10.34375-4.746094 1.441407-9.394531 3.121094-13.941406 5.011719-7.019531-10.5625-19.015625-17.546875-32.621094-17.546875-21.589844 0-39.152344 17.566406-39.152344 39.15625 0 10.140625 3.878907 19.382813 10.226563 26.34375-1.511719 2.039063-2.972656 4.121094-4.382813 6.246094-1.53125 2.3125-2.992187 4.675781-4.417969 7.070312-12.707031-10.101562-20.867187-25.683593-20.867187-43.140625 0-30.390625 24.722656-55.113281 55.113281-55.113281 6.472656 0 12.808594 1.109375 18.832032 3.296875 3.894531 1.417969 8.203124-.59375 9.617187-4.488281 1.417969-3.898438-.59375-8.207031-4.488281-9.621094-7.667969-2.789063-15.730469-4.203125-23.960938-4.203125-38.667968 0-70.128906 31.460938-70.128906 70.128906 0 23.167969 11.300781 43.738282 28.671875 56.515625-8.585937 17.660157-14.476563 36.957031-17.238281 56.855469-2.003906 14.429688-2.304688 28.761719-.890625 42.597656 3.019531 29.519532 13.402343 52.800782 31.507812 70.394532-1.941406 1.773437-4.046875 3.828124-6.363281 6.1875-7.535156 7.679687-14.648438 16.015624-16.003906 17.667968-7.59375 9.242188-13.359375 18.617188-17.136719 27.863282-2.449219 6-4.023437 11.613281-4.804687 17.175781-3.074219 21.878906 7.589843 43.15625 26.535156 52.945312 6.628906 3.425781 13.652344 5.101563 20.648437 5.101563 1.574219 0 3.144531-.09375 4.707031-.265625-.132812 18.613281 3.660157 36.546875 13.335938 50.984375 1.773438 21.164062 19.554688 37.847656 41.171875 37.847656h23.046875c3.472656 0 6.839844-.433594 10.0625-1.242188 9.082031.941407 87.371094 1.378907 100.824219-.023437 3.253906.824219 6.65625 1.265625 10.160156 1.265625h23.050781c21.625 0 39.414063-16.703125 41.171875-37.882812 9.667969-14.4375 13.480469-32.359376 13.34375-50.964844 1.558594.171875 3.125.285156 4.695313.285156 6.996094 0 14.019531-1.679688 20.648437-5.101562 18.945313-9.792969 29.609375-31.070313 26.53125-52.949219zm-72.386719-350.371094c30.390626 0 55.113282 24.722656 55.113282 55.113281 0 17.457032-8.164063 33.03125-20.871094 43.136719-1.425781-2.390625-2.886719-4.753906-4.417969-7.0625-1.410156-2.128906-2.875-4.214844-4.386719-6.257813 6.347657-6.960937 10.234376-16.195312 10.234376-26.335937 0-21.589844-17.5625-39.15625-39.152344-39.15625-13.605469 0-25.609375 6.980469-32.628906 17.542969-4.53125-1.882813-9.164063-3.542969-13.890626-4.984375 8.757813-18.871094 27.863282-31.996094 50-31.996094zm20.660157 58.59375c0 5.480469-1.84375 10.539063-4.933594 14.59375-10.960937-11.917969-23.835937-21.910156-38.054687-29.625 4.425781-5.539063 11.222656-9.109375 18.847656-9.109375 13.3125 0 24.140625 10.828125 24.140625 24.140625zm-252.339844-24.140625c7.628906 0 14.429687 3.5625 18.859375 9.105469-14.222656 7.714843-27.105469 17.707031-38.066406 29.628906-3.09375-4.054687-4.933594-9.113281-4.933594-14.59375.003906-13.3125 10.832031-24.140625 24.140625-24.140625zm-48.128906 175.101562c-1.292969-12.644531-1.015625-25.765624.824219-39.007812 3.566406-25.683594 12.738281-50.261719 26.519531-71.074219 20.6875-31.242187 54.199219-52.25 91.945312-57.628906 13.652344-1.945313 28.300781-2.917969 42.949219-2.917969s29.292969.972656 42.929688 2.917969c37.742187 5.378906 71.257812 26.382813 91.945312 57.628906 13.78125 20.8125 22.953125 45.386719 26.519531 71.074219 1.839844 13.238281 2.117188 26.363281.824219 39.007812-3.757812 36.769532-22.390625 64.277344-53.886719 79.550782-14.96875 7.261718-32.820312 12.289062-53.058593 14.949218-36.144532 4.75-74.375 4.753907-110.566407 0-20.238281-2.660156-38.089843-7.6875-53.0625-14.949218-32.839843-15.925782-49.964843-41.203125-53.882812-79.550782zm34.976562 141.921876c-4.695312 12.917968-8.265625 27.125-9.886719 41.378906-6.472656 1.277344-13.144531.355468-19.402343-2.878906-11.058594-5.710938-21.085938-19.53125-18.558594-37.515626.609375-4.3125 1.863281-8.753906 3.835937-13.582031 3.210938-7.855469 8.203126-15.9375 14.839844-24.015625 5.195313-6.328125 15.554688-17.601562 22.355469-23.644531 5.804687 4.214844 12.191406 8.011719 19.171875 11.398437 2.699219 1.308594 5.484375 2.542969 8.339844 3.71875-2.917969 4.195313-6.027344 10.003907-9.585938 17.769532-5.074218 11.0625-9.460937 22.828125-11.109375 27.371094zm93.042969 104.179687c0 14.507813-11.804688 26.3125-26.3125 26.3125h-23.050781c-14.507813 0-26.3125-11.804687-26.3125-26.3125v-13.507813c0-14.511718 11.804687-26.3125 26.3125-26.3125h23.050781c14.507812 0 26.3125 11.800782 26.3125 26.3125zm157.210938-42.46875c-.160157 4.574219-.601563 8.902344-1.3125 12.992187-6.257813-14.882812-20.984376-25.359374-38.117188-25.359374h-23.046875c-1.445313 0-2.902344.074218-4.328125.222656-4.125.429687-7.121094 4.121094-6.6875 8.246094.429688 4.125 4.117188 7.121093 8.246094 6.6875.910156-.09375 1.839844-.140626 2.769531-.140626h23.046875c14.511719 0 26.316406 11.800782 26.316406 26.3125v13.507813c0 14.507813-11.804687 26.3125-26.316406 26.3125h-23.046875c-14.511719 0-26.316406-11.804687-26.316406-26.3125v-13.507813c0-3.5.675781-6.898437 2.007812-10.097656 1.589844-3.828125-.222656-8.222656-4.050781-9.8125-3.824219-1.59375-8.21875.21875-9.8125 4.046875-2.09375 5.035157-3.15625 10.371094-3.15625 15.863281v13.507813c0 9.945313 3.53125 19.078125 9.402344 26.21875-5.292969.101563-10.9375.074219-17-.113281-.078125-.003906-.15625-.003906-.234375-.003906h-22.730469c-.078125 0-.152344 0-.230469.003906-5.464843.167968-11.195312.238281-17.03125.152344 5.890625-7.144532 9.433594-16.296876 9.433594-26.257813v-13.507813c0-22.789062-18.539063-41.328124-41.328125-41.328124h-23.050781c-17.125 0-31.847657 10.472656-38.109375 25.347656-.707032-4.089844-1.160156-8.410156-1.316406-12.980469-.808594-23.390625 5.828124-45.492187 9.859374-56.585937 8.921876-24.558594 17.175782-40.636719 20.898438-44.25h2.992188c9.960937 2.890624 20.652343 5.101562 32.011718 6.59375 18.734375 2.457031 37.996094 3.6875 57.253906 3.6875 19.257813 0 38.511719-1.230469 57.222657-3.6875 11.355469-1.492188 22.046875-3.703126 32.007812-6.59375h2.996094c3.71875 3.613281 11.976563 19.691406 20.898437 44.25 4.03125 11.09375 10.667969 33.195312 9.859376 56.585937zm33.539062-23.210937c-6.257812 3.234374-12.929688 4.140624-19.402344 2.863281-1.621094-14.253907-5.195312-28.453125-9.882812-41.363281-1.652344-4.542969-6.039063-16.308594-11.109375-27.371094-3.558594-7.761719-6.664063-13.578125-9.582031-17.777344 2.851562-1.171875 5.636718-2.40625 8.332031-3.710938 6.886719-3.339843 13.242187-7.1875 19.050781-11.503906 6.800781 6.011719 17.253906 17.382813 22.480469 23.746094 6.636719 8.082031 11.628906 16.160156 14.839843 24.015625 1.972657 4.832031 3.226563 9.273437 3.835938 13.582031 2.523438 17.988282-7.503906 31.808594-18.5625 37.519532zm0 0"/><path d="m118.847656 179.070312c4.148438 0 7.507813-3.363281 7.507813-7.507812v-18.445312c0-4.148438-3.359375-7.507813-7.507813-7.507813-4.144531 0-7.503906 3.359375-7.503906 7.507813v18.445312c0 4.144531 3.359375 7.507812 7.503906 7.507812zm0 0"/><path d="m262.132812 179.070312c4.144532 0 7.507813-3.363281 7.507813-7.507812v-18.445312c0-4.148438-3.363281-7.507813-7.507813-7.507813-4.144531 0-7.507812 3.359375-7.507812 7.507813v18.445312c0 4.144531 3.363281 7.507812 7.507812 7.507812zm0 0"/><path d="m143.445312 294.6875c12.09375 11.761719 28.464844 18.179688 46.273438 18.179688.605469 0 1.214844-.007813 1.828125-.023438 18.671875-.457031 36.277344-8.121094 48.308594-21.027344 11.027343-11.832031 14.746093-27.578125 10.472656-44.34375-3.691406-14.457031-12.859375-28.027344-25.023437-38.1875.328124-.585937.65625-1.160156.96875-1.765625 2.925781-5.65625 3.070312-12.210937.40625-17.984375-2.628907-5.691406-7.621094-9.765625-13.699219-11.175781-9.550781-2.21875-20.429688-1.980469-22.488281-1.910156-2.0625-.070313-12.9375-.3125-22.492188 1.910156-6.074219 1.410156-11.070312 5.484375-13.695312 11.175781-2.667969 5.773438-2.519532 12.328125.40625 17.984375.285156.550781.585937 1.078125.882812 1.613281-8.832031 7.171876-16.199219 16.144532-21.042969 26.070313-4.882812 10-6.949219 20.34375-5.976562 29.914063 1.101562 10.8125 6.382812 21.316406 14.871093 29.570312zm24.488282-98.859375c.394531-.851563 1.371094-2.359375 3.464844-2.84375 5.832031-1.355469 12.636718-1.5625 16.234374-1.5625 1.546876 0 2.5.039063 2.527344.039063.214844.007812.4375.007812.65625 0 .101563-.003907 10.425782-.417969 18.765625 1.519531 2.097657.488281 3.070313 1.992187 3.464844 2.847656.710937 1.539063.671875 3.285156-.109375 4.792969-4.035156 7.804687-11.191406 17.21875-22.445312 18.027344-11.253907-.808594-18.410157-10.222657-22.445313-18.027344-.78125-1.507813-.820313-3.253906-.113281-4.792969zm-19.890625 45.964844c3.792969-7.769531 9.5-14.8125 16.347656-20.511719 7.253906 7.5625 16.042969 11.871094 25.699219 12.386719.132812.003906.269531.007812.402344.007812.132812 0 .265624 0 .398437-.007812 9.578125-.511719 18.300781-4.757813 25.523437-12.203125 9.410157 8.105468 16.554688 18.714844 19.363282 29.722656 2.101562 8.230469 2.609375 20.1875-6.902344 30.390625-9.296875 9.972656-23.035156 15.894531-37.695312 16.253906-14.230469.351563-27.820313-4.71875-37.265626-13.90625-5.964843-5.800781-9.65625-13.019531-10.402343-20.332031-.691407-6.777344.875-14.320312 4.53125-21.800781zm0 0"/><path d="m190.734375 274.503906c8.929687 0 17.1875-4.058594 22.65625-11.128906 2.539063-3.28125 1.933594-7.996094-1.34375-10.53125-3.28125-2.535156-7.996094-1.933594-10.53125 1.347656-2.605469 3.363282-6.535156 5.296875-10.78125 5.296875-4.25 0-8.179687-1.929687-10.78125-5.292969-2.539063-3.28125-7.253906-3.882812-10.53125-1.34375-3.28125 2.535157-3.882813 7.253907-1.34375 10.53125 5.46875 7.066407 13.726563 11.121094 22.65625 11.121094zm0 0"/><path d="m110.746094 207.378906c0 9.941406-8.058594 18.003906-18 18.003906s-18.003906-8.0625-18.003906-18.003906 8.0625-18.003906 18.003906-18.003906 18 8.0625 18 18.003906zm0 0" fill="#f3cc50"/><path d="m306.242188 207.378906c0 9.941406-8.0625 18.003906-18.003907 18.003906-9.941406 0-18-8.0625-18-18.003906s8.058594-18.003906 18-18.003906c9.941407 0 18.003907 8.0625 18.003907 18.003906zm0 0" fill="#f3cc50"/></svg>