<svg id="Capa_1" enable-background="new 0 0 512 512" height="512" viewBox="0 0 512 512" width="512" xmlns="http://www.w3.org/2000/svg"><g><g><g><g fill="#aa7f7f"><path d="m418.345 83.163 24.293 23.701s48.993 16.078 52.294-13.761c3.729-33.714-57.125-32.512-76.587-9.94z"/><path d="m309.39 83.163-24.293 23.701s-48.993 16.078-52.294-13.761c-3.729-33.714 57.125-32.512 76.587-9.94z"/></g><path d="m358.844 149.784v299.578h-228.002c-34.058 0-64.899-13.806-87.212-36.13-22.324-22.314-36.13-53.154-36.13-87.213 0-97.329 78.907-176.235 176.235-176.235z" fill="#b58e85"/><path d="m43.63 392.265c-20.198-20.189-33.422-47.359-35.757-77.576-.238 3.748-.373 7.523-.373 11.331 0 34.058 13.806 64.899 36.13 87.213 22.313 22.323 53.154 36.13 87.212 36.13h228.001v-20.967h-228.001c-34.058-.001-64.899-13.808-87.212-36.131z" fill="#9d6c6c"/><path d="m232.636 349.127v100.235h-26.215v-91.878c0-44.265-35.889-80.153-80.154-80.153-3.68 0-7.3.251-10.85.734 11.091-5.802 23.691-9.09 37.075-9.09 44.265-.001 80.144 35.887 80.144 80.152z" fill="#9d6c6c"/><path d="m466.492 132.182c-6.25-47.416-49.811-69.544-102.625-69.544-52.861 0-96.451 21.641-102.641 69.554-23.559 15.412-37.992 38.387-37.992 69.842 0 55.491 62.963 100.475 140.633 100.475 77.669 0 140.633-44.984 140.633-100.475 0-31.462-14.439-54.44-38.008-69.852z" fill="#c2a19a"/><path d="m466.492 132.182c-6.25-47.416-49.811-69.544-102.625-69.544-4.56 0-9.045.173-13.449.498 46.679 3.474 83.619 25.674 89.337 69.046 23.569 15.412 38.008 38.39 38.008 69.853 0 52.269-55.866 95.209-127.264 100.02 4.401.297 8.859.455 13.369.455 77.669 0 140.633-44.984 140.633-100.475-.001-31.463-14.44-54.441-38.009-69.853z" fill="#b79090"/><path d="m326.696 214.463 17.986 50.974c1.274 3.61 4.686 6.024 8.514 6.024h21.343c3.828 0 7.24-2.414 8.514-6.024l17.986-50.974z" fill="#faf8f8"/><path d="m395.109 164.946h-61.719c-21.695 0-39.863 17.755-39.448 39.446.402 21.02 17.568 37.937 38.684 37.937 10.695 0 20.373-4.343 27.375-11.358 2.148-2.152 5.577-2.163 7.724-.01 7.559 7.579 18.24 12.042 29.954 11.285 19.149-1.238 34.706-16.718 36.027-35.862 1.56-22.612-16.32-41.438-38.597-41.438z" fill="#ffdcce"/><ellipse cx="363.867" cy="170.717" fill="#9d6c6c" rx="30.232" ry="20.93"/><path d="m149.672 449.362h277.138c33.962 0 59.215-31.41 51.921-64.58-6.089-27.689-32.835-45.727-60.788-40.998l-249.455 42.199c-21.737 3.677-37.646 22.504-37.646 44.549 0 10.399 8.431 18.83 18.83 18.83z" fill="#a29aa5"/><path d="m426.81 428.395h-295.916c-.033.709-.052 1.421-.052 2.137 0 10.4 8.431 18.83 18.83 18.83h277.138c33.612 0 58.673-30.768 52.115-63.557-4.844 23.829-25.872 42.59-52.115 42.59z" fill="#8c818f"/></g></g><g><path d="m313.275 132.811c4.143 0 7.5-3.358 7.5-7.5v-4.737c0-4.142-3.357-7.5-7.5-7.5s-7.5 3.358-7.5 7.5v4.737c0 4.142 3.358 7.5 7.5 7.5z"/><path d="m414.459 132.811c4.143 0 7.5-3.358 7.5-7.5v-4.737c0-4.142-3.357-7.5-7.5-7.5s-7.5 3.358-7.5 7.5v4.737c0 4.142 3.357 7.5 7.5 7.5z"/><path d="m390.123 267.935 6.399-18.137c23.895-.682 43.052-19.61 44.671-42.902 1.834-26.6-18.637-48.117-43.78-49.386-6.215-9.118-18.756-15.224-33.546-15.224-14.821 0-27.383 6.132-33.584 15.282-24.42 1.65-44.312 21.982-43.841 46.964.466 24.5 20.415 44.506 44.765 45.261l6.405 18.153c2.336 6.587 8.601 11.013 15.589 11.013h21.34c7 .001 13.264-4.432 15.582-11.024zm-26.256-110.648c9.565 0 22.732 4.842 22.732 13.43 0 7.154-10.623 13.43-22.732 13.43s-22.732-6.276-22.732-13.43c0-8.568 13.316-13.43 22.732-13.43zm-31.237 77.543c-16.878 0-30.87-13.719-31.19-30.582-.284-14.941 10.441-27.672 24.848-30.979 1.663 14.702 17.566 25.878 37.58 25.878 20.095 0 36.044-11.267 37.597-26.057 14.427 2.949 25.9 16.312 24.763 32.771-1.074 15.477-13.556 27.903-29.026 28.905-9.012.583-17.826-2.74-24.165-9.096-2.446-2.458-5.694-3.813-9.147-3.817h-.016c-3.458 0-6.716 1.354-9.184 3.822-5.888 5.904-13.722 9.155-22.06 9.155zm19.123 28.115-5.363-15.202c6.448-2.005 12.404-5.412 17.477-10.088 5.05 4.639 11.037 8.041 17.485 10.054l-5.377 15.243c-.212.603-.789 1.008-1.435 1.008h-21.34c-.65 0-1.234-.413-1.447-1.015z"/><path d="m486.056 383.171c-1.102-5.01-2.798-9.74-4.991-14.135-11.659-23.354-37.497-37.192-64.372-32.648l-50.353 8.518v-34.918c38.193-.452 74.094-11.346 101.33-30.804 28.587-20.424 44.33-47.823 44.33-77.149 0-30.96-13.325-56.554-38.585-74.224-.538-3.146-1.253-6.204-2.112-9.187 9.062-.332 16.337-2.597 21.664-6.826 5.41-4.295 8.578-10.308 9.416-17.873 1.291-11.654-3.429-21.47-13.289-27.641-15.526-9.716-43.276-8.88-62.732 1.406-17.387-8.231-38.726-12.552-62.495-12.552-24.465 0-45.633 4.333-62.737 12.428-19.468-10.175-47.129-10.939-62.554-1.241-9.818 6.172-14.517 15.974-13.23 27.6.835 7.554 3.996 13.562 9.394 17.856 5.317 4.23 12.58 6.502 21.631 6.844-.843 2.981-1.548 6.044-2.078 9.205-6.213 4.349-11.699 9.18-16.447 14.45h-54.106c-31.833 0-63.204 8.272-90.718 23.921-3.601 2.047-4.859 6.626-2.811 10.227 2.053 3.611 6.637 4.854 10.227 2.811 25.259-14.366 54.064-21.959 83.302-21.959h43.265c-7.439 13.115-11.271 28.163-11.271 44.755 0 29.326 15.744 56.725 44.331 77.149 24.832 17.741 56.867 28.361 91.274 30.441v37.819l-43.87 7.421v-23.365c0-4.142-3.357-7.5-7.5-7.5s-7.5 3.358-7.5 7.5v25.902l-52.33 8.852v-17.124c0-48.336-39.32-87.66-87.65-87.66-15.501 0-30.75 4.111-44.097 11.89-3.579 2.085-4.789 6.678-2.704 10.256 2.085 3.579 6.678 4.789 10.256 2.704 11.057-6.444 23.693-9.85 36.544-9.85 40.059 0 72.65 32.595 72.65 72.66v19.662l-57.903 9.795c-25.435 4.303-43.895 26.149-43.895 51.945 0 4.01.905 7.812 2.515 11.217-29.084-1.222-56.238-13.117-76.925-33.823-21.879-21.872-33.93-50.96-33.93-81.906 0-48.884 21.188-95.334 58.13-127.439 3.126-2.717 3.458-7.455.741-10.581-2.718-3.127-7.455-3.459-10.581-.741-40.222 34.955-63.29 85.532-63.29 138.761 0 34.954 13.612 67.809 38.324 92.511 24.695 24.717 57.551 38.329 92.516 38.329l295.971.002c23.1 0 43.896-12.853 54.274-33.543 1.857-3.702.361-8.209-3.342-10.066-3.704-1.858-8.209-.361-10.066 3.342-2.24 4.467-5.142 8.428-8.527 11.836-6.548-11.401-14.241-22.354-22.978-32.739 10.625-5.697 21.98-10.461 33.873-14.157.534 1.581.996 3.201 1.362 4.868.065.293.127.587.186.88.818 4.06 4.769 6.694 8.834 5.871 4.061-.818 6.688-4.772 5.871-8.833-.078-.387-.159-.773-.242-1.15zm1.42-290.897c-.393 3.541-1.611 6.011-3.835 7.777-3.561 2.826-10.009 4.041-18.385 3.512-5.416-10.225-13.103-19.076-22.854-26.314 18.239-5.656 47.159-3.819 45.074 15.025zm-243.398 7.769c-2.218-1.765-3.433-4.233-3.824-7.769-2.083-18.815 26.69-20.615 44.79-15.109-9.661 7.206-17.314 16.067-22.717 26.41-8.313.502-14.713-.718-18.249-3.532zm-13.343 101.992c0-18.565 5.442-34.43 16.215-47.41.053-.063.104-.128.156-.193 4.959-5.933 11.038-11.261 18.226-15.963 1.834-1.2 3.052-3.142 3.333-5.315 5.904-45.713 49.066-63.015 95.202-63.015 46.055 0 89.219 17.727 95.189 63.024.285 2.167 1.502 4.101 3.331 5.297 22.967 15.018 34.613 36.408 34.613 63.575 0 51.267-59.723 92.975-133.133 92.975-73.409-.001-133.132-41.709-133.132-92.975zm103.117 163.58c-7.65 6.07-14.869 12.465-21.613 19.164-4.95-4.458-10.125-8.751-15.485-12.888zm-126.698 21.433c-2.465 2.893-4.84 5.824-7.129 8.79-3.655-1.986-7.392-3.882-11.199-5.69zm-57.52 54.812c-6.23-.021-11.292-5.094-11.292-11.328 0-15.871 9.774-29.644 24.085-35.146 10.032 3.621 19.659 7.892 28.76 12.728-7.255 10.84-13.399 22.104-18.379 33.746zm39.625 0c4.235-8.986 9.242-17.723 14.992-26.198 12.301 7.729 23.38 16.547 32.879 26.198zm68.09 0c-11.953-14.394-26.989-27.363-44.223-38.315 5.555-7.067 11.646-13.935 18.251-20.594l44.719-7.565c9.157 6.301 17.801 13.078 25.834 20.289-12.746 14.312-23.475 29.797-31.924 46.185zm29.73 0c7.105-12.455 15.782-24.446 25.786-35.719 10.956 11.152 20.571 23.129 28.604 35.719zm71.912.002c-9.585-16.584-21.647-32.273-35.813-46.63 13.278-13.175 28.427-25.137 44.992-35.422l4.245-.718c14.917 9.904 28.449 21.044 40.366 33.17-20.24 13.5-37.331 30.37-49.828 49.6zm87.909-4.649c-6.128 2.997-12.957 4.649-20.089 4.649h-45.537c11.132-14.759 25.345-27.783 41.782-38.436 9.184 10.67 17.182 21.979 23.844 33.787zm-21.015-52.984c-9.804-10.257-20.672-19.862-32.48-28.688l25.79-4.363c17.076-2.891 33.594 4.089 43.61 16.915-12.983 4.236-25.366 9.665-36.92 16.136z"/></g></g></svg>