<?xml version="1.0" encoding="iso-8859-1"?>
<!-- Generator: Adobe Illustrator 19.0.0, SVG Export Plug-In . SVG Version: 6.00 Build 0)  -->
<svg version="1.1" id="Layer_1" xmlns="http://www.w3.org/2000/svg" xmlns:xlink="http://www.w3.org/1999/xlink" x="0px" y="0px"
	 viewBox="0 0 512 512" style="enable-background:new 0 0 512 512;" xml:space="preserve">
<path style="fill:#BC8E57;" d="M100.543,15.369c4.115,4.361,3.892,11.21-0.497,15.298L84.151,45.471l-14.9-15.79l15.895-14.804
	C89.535,10.788,96.428,11.008,100.543,15.369z"/>
<path style="fill:#EACD8B;" d="M506.553,197.068v21.506c0,17.971-14.631,32.54-32.681,32.54c0,35.865-29.264,64.939-65.362,64.939
	H190.638c-30.082,0-54.468-24.228-54.468-54.116c-54.148,0-98.043-43.612-98.043-97.409v-45.848c0-10.53-8.58-19.068-19.173-19.091
	C11.527,99.572,5.447,93.59,5.447,86.21V75.387c0-5.068,2.881-9.7,7.444-11.966l28.687-14.251c4.613-2.292,7.509-7.004,7.443-12.138
	c-0.095-7.338,6.183-13.206,13.57-13.206h19.112c4.95,0,9.499,1.659,13.157,4.422l2.736-2.549
	c4.564-4.252,11.837-3.843,15.876,1.035c3.686,4.451,2.985,11.068-1.248,15.01l-8.734,8.138v49.706v45.848
	c0,10.544,8.603,19.091,19.215,19.091c8.188,0,15.608-4.791,18.934-12.225l22.621-50.567c9.416-21.05,30.427-34.617,53.613-34.617
	s44.196,13.566,53.613,34.617l25.877,57.847c1.61,3.599,5.593,5.667,9.642,4.714c2.595-0.611,4.692-2.512,5.775-4.934l25.779-57.627
	c9.416-21.05,30.427-34.617,53.613-34.617s44.196,13.566,53.613,34.617l28.089,62.792
	C491.922,164.527,506.553,179.096,506.553,197.068z"/>
<path style="fill:#BC8E57;" d="M408.511,294.489v75.679c0,15.104-10.381,27.799-24.44,31.429c-4.834,1.247-8.241,5.529-8.241,10.491
	v77.137c0,5.977-4.877,10.823-10.894,10.823h-10.894c0,0-4.877,0-10.894,0h-10.894v-97.409c-6.017,0-10.894-4.845-10.894-10.823
	V294.49h21.787h43.574h21.787V294.489z"/>
<path style="fill:#5B462E;" d="M328.094,478.401c-4.126,0-7.898,2.316-9.743,5.983l-7.883,15.664h32.681
	c6.017,0,10.894-4.845,10.894-10.823v-10.823h-25.949V478.401z"/>
<path style="fill:#BC8E57;" d="M234.213,294.489H256v75.679c0,15.104-10.381,27.799-24.44,31.429
	c-4.833,1.247-8.241,5.529-8.241,10.491v77.137c0,5.977-4.877,10.823-10.894,10.823h-10.894c0,0-4.877,0-10.894,0h-10.894v-97.409
	c-6.017,0-10.894-4.845-10.894-10.823v-97.409h65.362V294.489z"/>
<path style="fill:#5B462E;" d="M175.583,478.401h25.949v10.823c0,5.977-4.877,10.823-10.894,10.823h-32.681l7.883-15.664
	C167.685,480.717,171.458,478.401,175.583,478.401z"/>
<g>
	<path style="fill:#BC8E57;" d="M275.251,110.155c3.45,7.713,4.205,16.35,2.145,24.539c-1.035,4.115-4.355,7.404-8.573,8.059
		c-5.469,0.849-10.511-2.593-11.809-7.746l-4.9-19.472c-0.757-3.01-3.479-5.122-6.603-5.122l0,0c-3.244,0-6.037,2.276-6.673,5.436
		l-7.157,35.555c-1.552,7.714-7.133,13.125-13.535,13.125s-11.983-5.411-13.535-13.125l-7.157-35.555
		c-0.636-3.16-3.429-5.436-6.673-5.436l0,0c-3.123,0-5.846,2.112-6.603,5.122l-4.822,19.16c-1.035,4.115-4.355,7.404-8.573,8.059
		c-5.469,0.849-10.511-2.593-11.809-7.746l-0.275-1.092c-2.06-8.189-1.305-16.826,2.145-24.539l3.417-7.641
		c9.416-21.05,30.427-34.617,53.613-34.617l0,0c23.186,0,44.196,13.566,53.613,34.617L275.251,110.155z"/>
	<path style="fill:#BC8E57;" d="M449.577,110.155l-3.767-8.42c-9.416-21.05-30.427-34.617-53.613-34.617l0,0
		c-23.186,0-44.197,13.566-53.613,34.617l-3.418,7.641c-3.45,7.713-4.205,16.35-2.145,24.539l0.275,1.092
		c1.297,5.154,6.34,8.595,11.809,7.746c4.218-0.655,7.538-3.945,8.573-8.059l4.822-19.16c0.757-3.01,3.479-5.122,6.603-5.122l0,0
		c3.244,0,6.037,2.276,6.673,5.436l7.157,35.555c1.552,7.714,7.133,13.125,13.535,13.125c6.402,0,11.983-5.411,13.535-13.125
		l7.157-35.555c0.636-3.16,3.429-5.436,6.673-5.436l0,0c3.123,0,5.846,2.112,6.603,5.122l4.9,19.472
		c1.297,5.154,6.34,8.595,11.809,7.746c4.218-0.655,7.538-3.945,8.573-8.059C453.782,126.505,453.027,117.868,449.577,110.155z"/>
</g>
<path style="fill:#D8B177;" d="M484.766,196.997v21.647c0,5.977-4.877,10.823-10.894,10.823h-6.536
	c-2.406,0-4.357,1.938-4.357,4.329v6.494c0,5.977,4.877,10.824,10.894,10.824c0,35.865-29.264,64.939-65.362,64.939v54.116
	c0,15.104-10.381,27.799-24.44,31.429c-4.834,1.247-8.241,5.529-8.241,10.491v77.137c0,5.977-4.877,10.823-10.894,10.823h-10.894
	v-97.409c-6.017,0-10.894-4.845-10.894-10.823v-75.763H256v54.116c0,15.104-10.381,27.799-24.44,31.429
	c-4.833,1.247-8.241,5.529-8.241,10.491v77.137c0,5.977-4.877,10.823-10.894,10.823h-10.894V402.64
	c-6.017,0-10.894-4.845-10.894-10.823v-75.763c-30.082,0-54.468-24.228-54.468-54.116c-0.019,0-0.036,0-0.054,0
	c-3.148-0.002-5.913,2.068-6.677,5.103l-2.842,11.293c-0.85,3.376-4.11,5.649-7.682,5.192c-2.905-0.373-5.209-2.632-5.92-5.454
	l-5.141-20.43c-0.301,0-0.26,0-0.561,0l-2.484,9.87c-0.85,3.376-4.11,5.651-7.682,5.192c-2.904-0.373-5.209-2.632-5.92-5.454
	l-4.713-18.728c-28.942-16.935-48.368-48.208-48.368-83.993v-45.848c0-10.544-8.603-19.091-19.215-19.091l0,0
	c-7.437,0-13.466-5.989-13.466-13.378V75.387c0-5.068,2.881-9.7,7.444-11.966L34.093,52.89c2.52,3.229,4.035,7.271,4.035,11.674
	v45.848c0,53.797,43.895,97.409,98.043,97.409h103.622c3.123,0,5.846,2.112,6.603,5.122l4.9,19.472
	c1.297,5.154,6.34,8.595,11.809,7.746c4.218-0.655,7.538-3.945,8.573-8.059l4.822-19.16c0.757-3.01,3.479-5.122,6.603-5.122l0,0
	c3.244,0,6.037,2.275,6.673,5.436l7.157,35.556c1.552,7.714,7.133,13.125,13.535,13.125s11.983-5.411,13.535-13.125l7.157-35.556
	c0.636-3.161,3.429-5.436,6.673-5.436l0,0c3.123,0,5.846,2.112,6.603,5.122l4.9,19.472c1.297,5.154,6.34,8.595,11.809,7.746
	c4.218-0.655,7.538-3.945,8.573-8.059l4.822-19.16c0.757-3.01,3.479-5.122,6.603-5.122h70.944c12.033,0,21.787-9.692,21.787-21.647
	C479.889,186.174,484.766,191.02,484.766,196.997z"/>
<g>
	<path style="fill:#776144;" d="M197.371,478.401h25.949v10.823c0,5.977-4.877,10.823-10.894,10.823h-32.681l7.883-15.664
		C189.473,480.717,193.245,478.401,197.371,478.401z"/>
	<path style="fill:#776144;" d="M349.881,478.401c-4.126,0-7.898,2.316-9.743,5.983l-7.883,15.664h32.681
		c6.017,0,10.894-4.845,10.894-10.823v-10.823h-25.949V478.401z"/>
</g>
<path style="fill:#BC8E57;" d="M37.876,88.766v21.647l0,0v8.268c0-10.544-8.603-19.091-19.215-19.091l0,0
	c-6.557,0-12.012-4.658-13.213-10.823h32.428V88.766z"/>
<path style="fill:#A87C47;" d="M27.234,56.295v10.823c0,5.977-4.877,10.823-10.894,10.823H5.447v-2.556
	c0-5.068,2.881-9.7,7.444-11.966L27.234,56.295z"/>
<g>
	<path style="fill:#BC8E57;" d="M343.149,288.142v13.941v13.971v22.185h-21.787v-22.185h-43.574h-10.894H256v-27.912
		c0-2.518,2.739-4.558,6.117-4.558c2.807,0,5.254,1.424,5.935,3.452c1.476,4.401,5.622,7.371,10.292,7.371h42.46
		c4.67,0,8.816-2.969,10.292-7.371c0.681-2.029,3.128-3.452,5.935-3.452C340.41,283.583,343.149,285.624,343.149,288.142z"/>
	<path style="fill:#BC8E57;" d="M190.638,302.078v4.886v9.09v22.185h-21.787v-26.7c-19.234-8.352-32.681-27.412-32.681-49.6h5.763
		c3.067,0,6.009,1.268,8.05,3.542c6.635,7.389,15.28,12.959,25.083,15.86C184.303,284.073,190.638,292.502,190.638,302.078z"/>
	<path style="fill:#BC8E57;" d="M457.216,294.406c-11.968,13.281-29.351,21.647-48.705,21.647V305.23v-10.823v-4.534
		c0-3.688,3.195-6.635,6.985-6.257c2.524,0.252,4.616,2.074,5.417,4.465c1.267,3.777,4.825,6.325,8.833,6.325L457.216,294.406
		L457.216,294.406z"/>
</g>
<path style="fill:#60503E;" d="M70.809,61.707c0,2.989-2.439,5.412-5.447,5.412c-3.008,0-5.447-2.423-5.447-5.412
	c0-2.988,2.439-5.412,5.447-5.412C68.369,56.295,70.809,58.719,70.809,61.707z"/>
<path d="M512,198.147v21.506c0,19.154-14.321,35.042-32.862,37.603c-2.492,34.655-30.353,62.449-65.181,65.094v48.898
	c0,17.261-11.728,32.344-28.521,36.679c-2.45,0.633-4.16,2.788-4.16,5.241v77.137c0,8.959-7.33,16.247-16.34,16.247h-54.468
	c-1.888,0-3.643-0.974-4.635-2.574c-0.991-1.6-1.081-3.598-0.234-5.279l7.883-15.664c2.592-5.153,7.621-8.489,13.326-8.927v-65.892
	c-6.34-2.235-10.894-8.258-10.894-15.319l-0.8-70.339h-53.667v48.692c0,17.261-11.728,32.344-28.519,36.679
	c-2.45,0.633-4.161,2.788-4.161,5.241v77.137c0,8.959-7.33,16.247-16.34,16.247h-54.468c-1.889,0-3.643-0.974-4.634-2.574
	c-0.992-1.6-1.082-3.598-0.235-5.279l7.883-15.664c2.593-5.153,7.622-8.489,13.327-8.927v-65.893
	c-6.34-2.235-10.894-8.258-10.894-15.319v-76.832c-15.456-7.839-26.565-21.86-30.797-38.219l-0.727,2.887
	c-1.528,6.078-7.414,10.057-13.662,9.252c-5.015-0.645-9.238-4.469-10.508-9.517l-1.15-4.57c-2.633,2.463-6.308,3.753-10.131,3.263
	c-5.014-0.644-9.237-4.467-10.507-9.517l-4.164-16.547c-30.329-18.67-49.078-51.98-49.078-87.488V119.76
	c0-7.52-6.163-13.652-13.737-13.668C8.498,106.069,0,97.635,0,87.291V76.468c0-7.169,4.008-13.614,10.459-16.819l14.242-7.074
	c0.07-0.037,0.139-0.072,0.211-0.105l14.235-7.071c2.729-1.355,4.467-4.188,4.427-7.215c-0.063-4.865,1.826-9.484,5.316-13.006
	c3.587-3.619,8.581-5.693,13.7-5.693h8.467l10.367-9.656c6.57-6.12,16.928-5.788,23.088,0.741c2.193,2.324,3.618,5.206,4.168,8.263
	c3.515,0.785,6.646,2.698,8.995,5.534c5.456,6.587,4.696,16.436-1.729,22.421l-7.01,6.526v93.203c0,7.536,6.177,13.668,13.77,13.668
	c6.032,0,11.51-3.536,13.958-9.008l22.621-50.567c10.281-22.983,33.278-37.834,58.588-37.834c25.309,0,48.307,14.85,58.588,37.832
	l25.877,57.848c0.583,1.302,1.989,1.978,3.413,1.642c0.841-0.198,1.628-0.912,2.053-1.862l25.779-57.627
	c10.281-22.983,33.279-37.834,58.588-37.834c25.128,0,47.979,14.64,58.367,37.343c0.09,0.158,26.946,60.235,26.946,60.235
	C496.821,162.171,512,178.428,512,198.147z M338.306,133.677l0.276,1.093c0.633,2.516,3.07,4.116,5.686,3.705
	c1.94-0.302,3.599-1.915,4.128-4.019l4.823-19.161c1.367-5.433,6.254-9.227,11.886-9.227c5.819,0,10.872,4.119,12.013,9.793
	l7.157,35.555c1.023,5.08,4.471,8.767,8.195,8.767c3.725,0,7.172-3.687,8.194-8.767l7.157-35.555
	c1.142-5.674,6.195-9.793,12.013-9.793c5.632,0,10.519,3.794,11.886,9.227l4.9,19.472c0.634,2.518,3.071,4.117,5.688,3.706
	c1.94-0.302,3.599-1.915,4.128-4.019c1.655-6.571,1.172-13.573-1.345-19.857l-4.284-9.578c-8.533-19.075-27.624-31.4-48.637-31.4
	c-20.841,0-39.792,12.126-48.426,30.935c-0.053,0.156-3.601,8.106-3.601,8.106C337.202,119.236,336.55,126.698,338.306,133.677z
	 M163.981,133.677l0.275,1.09c0.635,2.519,3.08,4.111,5.686,3.707c1.94-0.302,3.6-1.915,4.129-4.019l4.822-19.161
	c1.367-5.433,6.255-9.227,11.886-9.227c5.819,0,10.872,4.119,12.015,9.793l7.157,35.555c1.023,5.08,4.47,8.767,8.195,8.767
	s7.172-3.687,8.195-8.767l7.157-35.555c1.142-5.674,6.195-9.793,12.015-9.793c5.631,0,10.519,3.794,11.886,9.227l4.9,19.472
	c0.633,2.518,3.068,4.112,5.688,3.706c1.939-0.301,3.598-1.915,4.126-4.019c1.756-6.98,1.105-14.443-1.837-21.014
	c-0.007-0.015-0.014-0.032-0.021-0.047l-3.745-8.373c-8.533-19.075-27.624-31.4-48.637-31.4c-21.014,0-40.104,12.325-48.637,31.4
	l-3.398,7.595c-0.007,0.015-0.013,0.031-0.02,0.046C162.877,119.235,162.224,126.698,163.981,133.677z M86.544,19.91
	c2.673,0.478,5.247,1.354,7.664,2.607c1.093-0.962,2.305-1.767,3.599-2.402c-0.239-0.782-0.656-1.51-1.233-2.122
	c-2.056-2.179-5.514-2.29-7.708-0.247L86.544,19.91z M11.426,73.598h4.914c3.003,0,5.447-2.423,5.447-5.4v-2.057l-6.465,3.211
	C13.494,70.263,12.129,71.783,11.426,73.598z M181.817,484.904h-6.233c-2.079,0-3.947,1.146-4.874,2.989l-3.93,7.811h9.603
	L181.817,484.904z M185.191,403.719v70.339h10.894v-65.843c-6.34-2.235-10.894-8.258-10.894-15.319v-89.737
	c0-7.228-4.693-13.473-11.678-15.541c-10.627-3.145-20.167-9.178-27.591-17.445c-0.988-1.101-2.442-1.732-3.989-1.732h-0.013
	c1.93,17.156,12.925,32.192,29.103,39.217c1.982,0.861,3.265,2.805,3.269,4.958l0.004,1.651v78.629c0,2.977,2.443,5.4,5.447,5.4
	C182.752,398.296,185.191,400.724,185.191,403.719z M217.872,484.904h-20.501c-2.079,0-3.947,1.146-4.874,2.989l-3.93,7.811h23.858
	c3.003,0,5.447-2.423,5.447-5.4V484.904z M334.327,484.904h-6.233c-2.078,0-3.946,1.145-4.874,2.988l-3.931,7.812h9.603
	L334.327,484.904z M337.702,403.719v70.339h10.894v-65.843c-6.34-2.235-10.894-8.258-10.894-15.319V290.171
	c-0.172-0.048-0.398-0.085-0.67-0.085c-0.431,0-0.745,0.097-0.919,0.175c-2.341,6.388-8.437,10.648-15.309,10.648h-42.46
	c-6.872,0-12.967-4.26-15.309-10.648c-0.174-0.077-0.488-0.175-0.919-0.175c-0.272,0-0.498,0.038-0.67,0.085v21.538h59.073
	c3.009,0,5.447,2.428,5.447,5.423v2.177l0.154,11.438l0.69,62.089c0,3.037,2.443,5.46,5.447,5.46
	C335.264,398.296,337.702,400.724,337.702,403.719z M370.383,484.904h-20.501c-2.078,0-3.946,1.145-4.874,2.988l-3.931,7.812h23.859
	c3.003,0,5.447-2.423,5.447-5.4V484.904z M501.106,198.147c0-14.953-12.217-27.116-27.234-27.116c-2.151,0-4.1-1.26-4.975-3.217
	l-12.681-28.346c-2.149,5.156-6.736,8.871-12.229,9.724c-8.214,1.276-15.919-3.793-17.932-11.788l-4.899-19.472
	c-0.151-0.598-0.694-1.016-1.32-1.016c-0.647,0-1.207,0.453-1.333,1.078l-7.157,35.555c-2.071,10.293-9.833,17.483-18.875,17.483
	c-9.042,0-16.804-7.189-18.876-17.482l-7.157-35.556c-0.125-0.625-0.686-1.078-1.333-1.078c-0.626,0-1.169,0.418-1.32,1.016
	l-4.822,19.16c-1.602,6.372-6.712,11.121-13.017,12.1c-7.73,1.199-15.008-3.217-17.517-10.402l-10.674,23.86
	c-1.805,4.037-5.355,7.03-9.496,8.005c-6.493,1.532-13.169-1.743-15.872-7.784l-10.482-23.433
	c-2.145,5.172-6.738,8.901-12.241,9.755c-8.215,1.276-15.921-3.793-17.932-11.788l-4.9-19.471c-0.15-0.598-0.693-1.016-1.319-1.016
	c-0.647,0-1.207,0.453-1.333,1.078l-7.157,35.555c-2.072,10.293-9.834,17.483-18.876,17.483s-16.804-7.189-18.876-17.483
	l-7.157-35.555c-0.126-0.625-0.686-1.078-1.333-1.078c-0.626,0-1.169,0.418-1.319,1.016l-4.822,19.16
	c-1.602,6.372-6.713,11.121-13.018,12.1c-7.714,1.196-14.985-3.204-17.504-10.369l-7.5,16.766
	c-4.196,9.38-13.581,15.442-23.909,15.442c-13.599,0-24.663-10.997-24.663-24.515V50.961c0-1.501,0.625-2.935,1.726-3.961
	l8.737-8.138c2.197-2.047,2.541-5.457,0.767-7.599c-0.976-1.178-2.35-1.88-3.869-1.978c-1.524-0.1-2.973,0.417-4.085,1.453
	l-2.736,2.549c-1.937,1.805-4.9,1.956-7.013,0.362c-2.876-2.172-6.288-3.32-9.866-3.32H62.59c-2.224,0-4.392,0.9-5.947,2.467
	c-1.429,1.44-2.202,3.304-2.177,5.245c0.093,7.163-4.012,13.859-10.457,17.06l-11.329,5.629v7.469c0,8.959-7.33,16.247-16.34,16.247
	h-5.447v2.845c0,4.377,3.622,7.945,8.074,7.955c13.568,0.028,24.607,11.025,24.607,24.514v45.848
	c0,32.368,17.419,62.694,45.479,79.204c1.317,0.696,2.338,1.924,2.727,3.467l4.713,18.728c0.184,0.733,0.745,1.319,1.332,1.394
	c0.787,0.099,1.515-0.386,1.703-1.131l2.484-9.871c0.607-2.413,2.785-4.105,5.283-4.105h0.561c2.498,0,4.677,1.692,5.283,4.105
	l5.141,20.43c0.184,0.732,0.745,1.318,1.333,1.394c0.796,0.106,1.511-0.374,1.702-1.131l2.841-11.294
	c1.365-5.423,6.28-9.208,11.956-9.208c0.009-0.001,0.022,0,0.032,0c0.009,0,0.019,0,0.027,0h5.764c4.644,0,9.057,1.95,12.11,5.35
	c6.076,6.767,13.883,11.704,22.574,14.276c11.462,3.392,19.468,14.059,19.468,25.938v89.737c0,2.977,2.443,5.4,5.447,5.4
	c3.008,0,5.447,2.428,5.447,5.423v70.339h10.894v-60.89c0-7.396,5.067-13.869,12.322-15.74
	c11.987-3.094,20.359-13.859,20.359-26.178v-82.027c0-5.597,5.08-9.982,11.564-9.982c5.203,0,9.665,2.877,11.101,7.158
	c0.736,2.192,2.795,3.665,5.127,3.665h42.46c2.331,0,4.39-1.473,5.127-3.666c1.436-4.281,5.898-7.158,11.101-7.158
	c6.484,0,11.564,4.385,11.564,9.982v103.673c0,2.977,2.443,5.4,5.447,5.4c3.009,0,5.447,2.428,5.447,5.423v70.339h10.894v-60.89
	c0-7.396,5.066-13.869,12.321-15.74c11.988-3.095,20.36-13.86,20.36-26.18v-80.296c0-3.301,1.411-6.464,3.872-8.681
	c2.464-2.22,5.786-3.302,9.103-2.972c4.594,0.458,8.535,3.655,10.041,8.143c0.526,1.566,2,2.62,3.668,2.62
	c3.009,0,5.447,2.428,5.447,5.423s-2.438,5.423-5.447,5.423c-6.36,0-11.986-4.031-14-10.03c-0.141-0.418-0.48-0.757-0.794-0.788
	c-0.282-0.025-0.516,0.048-0.708,0.221c-0.131,0.118-0.288,0.325-0.288,0.639v20.514c29.027-2.609,52.144-25.872,54.304-54.836
	c-6.254-2.28-10.729-8.26-10.729-15.26v-6.494c0-5.377,4.398-9.752,9.804-9.752h6.536c3.003,0,5.447-2.423,5.447-5.4v-21.647
	c0-1.212-0.405-2.333-1.088-3.235c-3.308,11.244-13.777,19.482-26.146,19.482h-70.941c-0.626,0-1.169,0.418-1.32,1.016l-4.822,19.16
	c-1.602,6.372-6.712,11.121-13.018,12.1c-8.218,1.273-15.919-3.795-17.93-11.787l-4.9-19.473c-0.15-0.598-0.693-1.016-1.319-1.016
	c-0.647,0-1.208,0.454-1.334,1.08l-7.156,35.554c-2.072,10.293-9.835,17.483-18.876,17.483s-16.805-7.189-18.876-17.482
	l-7.156-35.556c-0.125-0.624-0.687-1.078-1.334-1.078c-0.626,0-1.169,0.418-1.32,1.016l-4.822,19.16
	c-1.602,6.372-6.712,11.121-13.018,12.1c-8.216,1.271-15.919-3.794-17.93-11.787l-4.9-19.472c-0.15-0.599-0.693-1.016-1.319-1.016
	H136.17c-28.772,0-55.5-11.452-75.26-32.248c-2.068-2.177-1.973-5.609,0.212-7.667c2.185-2.059,5.632-1.963,7.7,0.211
	c17.681,18.608,41.599,28.856,67.348,28.856h103.622c5.631,0,10.519,3.794,11.886,9.227l4.9,19.472
	c0.633,2.516,3.076,4.115,5.686,3.706c1.94-0.301,3.599-1.915,4.128-4.019l4.822-19.161c1.367-5.433,6.255-9.227,11.887-9.227
	c5.818,0,10.871,4.119,12.015,9.792l7.156,35.557c1.023,5.08,4.471,8.767,8.195,8.767c3.725,0,7.172-3.688,8.195-8.768l7.156-35.555
	c1.144-5.676,6.196-9.793,12.015-9.793c5.632,0,10.52,3.794,11.887,9.227l4.899,19.473c0.633,2.516,3.076,4.113,5.686,3.706
	c1.94-0.301,3.599-1.915,4.128-4.019l4.822-19.161c1.367-5.433,6.255-9.227,11.887-9.227h70.944c9.01,0,16.34-7.278,16.34-16.223
	c0-2.995,2.438-5.423,5.447-5.423c9.01,0,16.34,7.288,16.34,16.246v21.647c0,8.959-7.33,16.247-16.34,16.247h-5.447v5.4
	c0,2.977,2.443,5.4,5.447,5.4c15.017,0,27.234-12.164,27.234-27.116V198.147z"/>
<g>
</g>
<g>
</g>
<g>
</g>
<g>
</g>
<g>
</g>
<g>
</g>
<g>
</g>
<g>
</g>
<g>
</g>
<g>
</g>
<g>
</g>
<g>
</g>
<g>
</g>
<g>
</g>
<g>
</g>
</svg>
