<?xml version="1.0" encoding="iso-8859-1"?>
<!-- Generator: Adobe Illustrator 19.0.0, SVG Export Plug-In . SVG Version: 6.00 Build 0)  -->
<svg version="1.1" id="Capa_1" xmlns="http://www.w3.org/2000/svg" xmlns:xlink="http://www.w3.org/1999/xlink" x="0px" y="0px"
	 viewBox="0 0 512 512" style="enable-background:new 0 0 512 512;" xml:space="preserve">
<g>
	<path style="fill:#FBDD56;" d="M485.627,190.647c18.918,18.918,0.924,67.585-25.198,93.707c-18.918,18.918-49.591,18.918-68.509,0
		s-18.918-49.591,0-68.509C418.042,189.723,466.709,171.729,485.627,190.647z"/>
	<path style="fill:#FBDD56;" d="M26.372,190.647c-18.918,18.918-0.924,67.585,25.198,93.707c18.918,18.918,49.591,18.918,68.509,0
		s18.918-49.591,0-68.509C93.958,189.723,45.291,171.729,26.372,190.647z"/>
</g>
<path style="opacity:0.05;enable-background:new    ;" d="M485.627,190.647c18.918,18.918,0.924,67.585-25.198,93.707
	c-18.918,18.918-49.591,18.918-68.509,0s-18.918-49.591,0-68.509C418.042,189.723,466.709,171.729,485.627,190.647z"/>
<path style="opacity:0.05;enable-background:new    ;" d="M26.372,190.647c-18.918,18.918-0.924,67.585,25.198,93.707
	c18.918,18.918,49.591,18.918,68.509,0s18.918-49.591,0-68.509C93.958,189.723,45.291,171.729,26.372,190.647z"/>
<path style="fill:#FBDD56;" d="M256,7.5L256,7.5C152.559,7.5,72.681,98.42,86,200.999l17.101,131.713
	c9.976,76.833,75.421,134.33,152.899,134.33l0,0c77.478,0,142.923-57.497,152.899-134.33L426,200.999
	C439.319,98.42,359.441,7.5,256,7.5z"/>
<g>
	<ellipse style="fill:#FFA6BB;" cx="167.03" cy="178.54" rx="32.829" ry="26.14"/>
	<ellipse style="fill:#FFA6BB;" cx="344.97" cy="178.54" rx="32.829" ry="26.14"/>
</g>
<path style="opacity:0.05;enable-background:new    ;" d="M222.663,10.729C136.043,27.743,74.153,109.757,86,200.999l17.101,131.713
	c9.976,76.833,75.421,134.33,152.899,134.33l0,0c11.966,0,23.644-1.375,34.876-3.978C139.244,349.536,88.619,106.646,222.663,10.729
	z"/>
<path style="fill:#EAEAEA;" d="M475.837,238.377l-70.912,37.287c-8.948,4.705-19.614,4.813-28.656,0.291l-98.233-49.134
	c-13.871-6.938-30.2-6.938-44.072,0l-98.233,49.134c-9.042,4.522-19.708,4.414-28.656-0.291l-70.912-37.287
	C23.141,231.53,7.506,240.969,7.5,255.682V256c0,137.243,111.257,248.5,248.5,248.5S504.5,393.243,504.5,256v-0.318
	C504.494,240.969,488.859,231.53,475.837,238.377z"/>
<path style="opacity:0.1;enable-background:new    ;" d="M163.748,261.942l-28.016,14.013c-9.042,4.522-19.708,4.414-28.656-0.291
	l-70.912-37.287C23.141,231.53,7.506,240.969,7.5,255.682V256c0,137.243,111.257,248.5,248.5,248.5
	c50.115,0,96.754-14.848,135.788-40.366C247.656,486.004,183.855,387.032,163.748,261.942z"/>
<g style="opacity:0.1;">
	<circle cx="127.03" cy="337.87" r="7.167"/>
	<circle cx="91.71" cy="353.84" r="7.167"/>
	<circle cx="167.03" cy="447.84" r="7.167"/>
	<circle cx="394.45" cy="337.87" r="7.167"/>
	<circle cx="420.29" cy="377.47" r="7.167"/>
</g>
<path style="fill:#C27C59;" d="M250.805,133.042l-22.311,30.389c-3.507,4.776-2.633,11.467,1.983,15.182l15.475,12.457
	c5.867,4.722,14.23,4.722,20.097,0l15.475-12.457c4.616-3.715,5.49-10.406,1.983-15.182l-22.311-30.389
	C258.62,129.534,253.38,129.534,250.805,133.042z"/>
<path style="opacity:0.1;enable-background:new    ;" d="M253.704,130.837c-1.11,0.421-2.126,1.152-2.899,2.205l-22.311,30.39
	c-3.507,4.776-2.633,11.467,1.983,15.182l15.475,12.457c4.38,3.526,10.152,4.416,15.237,2.677
	C243.841,187.616,248.674,150.327,253.704,130.837z"/>
<path d="M225.773,184.457l15.475,12.455c4.274,3.441,9.512,5.161,14.752,5.161c5.238-0.001,10.478-1.721,14.751-5.16l15.476-12.457
	c7.761-6.247,9.222-17.433,3.325-25.463l-22.311-30.39c-2.617-3.564-6.819-5.692-11.241-5.692s-8.624,2.128-11.241,5.692h0.001
	l-22.312,30.39C216.551,167.023,218.012,178.209,225.773,184.457z M234.539,167.87L256,138.639l21.461,29.231
	c1.135,1.546,0.853,3.699-0.64,4.901l-15.476,12.457c-3.097,2.492-7.593,2.493-10.691-0.001l-15.475-12.455
	C233.685,171.569,233.404,169.416,234.539,167.87z M346.985,147.673v-14.092c0-4.143-3.358-7.5-7.5-7.5s-7.5,3.357-7.5,7.5v14.092
	c0,4.143,3.358,7.5,7.5,7.5C343.627,155.173,346.985,151.815,346.985,147.673z M498.925,232.523c-0.178-0.107-0.361-0.2-0.54-0.303
	c5.16-20.323,2.605-36.816-7.455-46.876c-11.585-11.587-32.044-13.168-56.027-4.737c0.411-43.786-15.261-86.512-44.484-119.775
	C356.455,22.173,307.46,0,255.999,0c-46.836,0-91.096,17.946-124.626,50.534c-2.971,2.887-3.038,7.635-0.151,10.605
	c2.888,2.971,7.636,3.039,10.605,0.15C172.542,31.44,213.089,15,256,15c47.146,0,92.033,20.313,123.15,55.732
	c31.118,35.419,45.482,82.547,39.412,129.301l-8.359,64.381l-8.769,4.611c-6.794,3.572-14.947,3.656-21.811,0.222l-98.232-49.134
	c-15.899-7.951-34.883-7.951-50.782,0l-98.233,49.134c-6.863,3.435-15.017,3.353-21.811-0.222l-8.769-4.611l-8.359-64.381
	c-0.372-2.862-0.66-5.719-0.885-8.572c-0.001-0.021-0.004-0.043-0.005-0.064c-2.688-34.344,5.267-67.854,23.225-97.412
	c2.151-3.54,1.024-8.153-2.516-10.305c-3.539-2.149-8.153-1.024-10.304,2.516c-17.519,28.836-26.318,61.11-25.904,94.396
	c-23.962-8.412-44.401-6.826-55.979,4.752c-10.06,10.06-12.615,26.554-7.455,46.877c-0.179,0.103-0.362,0.196-0.54,0.303
	C4.892,237.464,0.004,246.12,0,255.682V256c0,68.38,26.629,132.668,74.98,181.02C123.332,485.371,187.62,512,256,512
	c29.74,0,58.884-5.056,86.621-15.028c26.805-9.636,51.688-23.627,73.957-41.584c3.225-2.601,3.731-7.322,1.131-10.547
	c-2.6-3.226-7.322-3.729-10.546-1.131C364.545,478.075,310.861,497,256,497c-64.374,0-124.894-25.068-170.413-70.587
	C40.068,380.895,15,320.374,15,256v-0.315c0.002-4.323,2.125-8.085,5.827-10.319c3.701-2.235,8.019-2.362,11.845-0.35l70.913,37.287
	c11.056,5.813,24.328,5.948,35.501,0.36l98.233-49.134c11.696-5.852,25.664-5.852,37.361,0l98.233,49.134
	c11.173,5.588,24.444,5.453,35.502-0.36l70.912-37.288c3.827-2.011,8.145-1.885,11.845,0.351c3.702,2.234,5.825,5.996,5.827,10.316
	V256c0,58.44-21.18,114.807-59.639,158.716c-2.729,3.116-2.415,7.855,0.701,10.583c3.116,2.73,7.854,2.417,10.583-0.7
	C489.5,377.954,512,318.078,512,256v-0.321C511.996,246.12,507.108,237.464,498.925,232.523z M39.654,231.739
	c-3.639-1.915-7.552-2.945-11.481-3.111c-3.712-14.692-2.499-26.676,3.503-32.678c7.947-7.949,25.858-7.453,46.32,1.07
	c0.169,1.647,0.353,3.295,0.567,4.945l7,53.914L39.654,231.739z M483.826,228.629c-3.928,0.166-7.841,1.197-11.48,3.109
	l-45.909,24.14l7-53.913c0.214-1.649,0.403-3.298,0.57-4.947c20.458-8.521,38.369-9.015,46.316-1.067
	C486.325,201.953,487.538,213.937,483.826,228.629z M180.015,147.673v-14.092c0-4.143-3.358-7.5-7.5-7.5s-7.5,3.357-7.5,7.5v14.092
	c0,4.143,3.358,7.5,7.5,7.5S180.015,151.815,180.015,147.673z"/>
<g>
</g>
<g>
</g>
<g>
</g>
<g>
</g>
<g>
</g>
<g>
</g>
<g>
</g>
<g>
</g>
<g>
</g>
<g>
</g>
<g>
</g>
<g>
</g>
<g>
</g>
<g>
</g>
<g>
</g>
</svg>
