<svg height="512" viewBox="0 0 64 64" width="512" xmlns="http://www.w3.org/2000/svg"><g id="Filled_outline" data-name="Filled outline"><path d="m19 61h-16v-2c0-2.406 1.613-4.3 4-4l12 2z" fill="#7d8d9c"/><path d="m33 61h16v-2c0-2.406-1.613-4.3-4-4l-12 2z" fill="#7d8d9c"/><path d="m38 49s6-2 8-7c1.894-4.734 6.3-13.486 13-9 7 4.688-6 20-21 20z" fill="#5a6470"/><path d="m20 14-8-11s-5 6-5 11 5 8 5 8z" fill="#f98c96"/><path d="m32 14 8-11s5 6 5 11-5 8-5 8z" fill="#f98c96"/><path d="m41 26-1-2v-2l-8-8h-12l-8 8v2l-1 2a4.052 4.052 0 0 0 0 4l2 3 4 3c-2.344 3.075-6 7.316-6 12a19.637 19.637 0 0 0 5 13h20a19.637 19.637 0 0 0 5-13c0-4.684-3.656-8.925-6-12l4-3 2-3a4.052 4.052 0 0 0 0-4z" fill="#aabece"/><path d="m26 28c-2 0-3-4-3-4h6s-1 4-3 4z" fill="#9c2d20"/><path d="m9.581 6.492c1.108 1.008 3.419 3.465 3.419 6.508 0 4 3 5 3 5l4-4-8-11a30.236 30.236 0 0 0 -2.419 3.492z" fill="#5a6470"/><path d="m42.419 6.492c-1.108 1.008-3.419 3.465-3.419 6.508 0 4-3 5-3 5l-4-4 8-11a30.236 30.236 0 0 1 2.419 3.492z" fill="#5a6470"/><path d="m31 61h-10l1-5a4.247 4.247 0 0 1 4-3 4.247 4.247 0 0 1 4 3z" fill="#f4f4e6"/><path d="m23 33a3.974 3.974 0 0 0 3-1.382 3.983 3.983 0 0 0 7-2.618h-2a2 2 0 0 1 -4 0v-.21c1.934-.821 2.8-3.862 2.97-4.547a1 1 0 0 0 -.97-1.243h-6a1 1 0 0 0 -.97 1.243c.171.685 1.036 3.726 2.97 4.547v.21a2 2 0 0 1 -4 0h-2a4 4 0 0 0 4 4zm1.391-8h3.218c-.434 1.035-1.055 2-1.609 2s-1.175-.965-1.609-2z"/><circle cx="34" cy="23" r="2"/><circle cx="18" cy="23" r="2"/><path d="m34.938 26.5h4.123v2h-4.123z" transform="matrix(.97 -.243 .243 .97 -5.565 9.795)"/><path d="m14 25.438h2v4.123h-2z" transform="matrix(.243 -.97 .97 .243 -15.317 35.382)"/><path d="m22 51.827a3.827 3.827 0 0 0 2.707-6.534l-4-4-1.414 1.414 4 4a1.829 1.829 0 0 1 -2.586 2.586l-4-4-1.414 1.414 4 4a3.814 3.814 0 0 0 2.707 1.12z"/><path d="m28.707 49.293a1.831 1.831 0 0 1 0-2.586l4-4-1.414-1.414-4 4a3.828 3.828 0 0 0 5.414 5.414l4-4-1.414-1.414-4 4a1.831 1.831 0 0 1 -2.586 0z"/><path d="m14 50h2v2h-2z"/><path d="m16 54h2v2h-2z"/><path d="m3 62h46a1 1 0 0 0 1-1v-2a5.251 5.251 0 0 0 -1.653-3.97 4.373 4.373 0 0 0 -3.511-1.016l-3.994.663c.1-.3.211-.6.3-.9 10.265-1.37 19.026-9.025 20.568-15.259.672-2.713-.094-4.968-2.154-6.348a6.857 6.857 0 0 0 -6.023-1.133c-3.2.991-6.051 4.555-8.463 10.593a10.2 10.2 0 0 1 -3.314 4.17c-.782-3.7-3.331-7-5.282-9.522l-.064-.081 3.19-2.397a1 1 0 0 0 .232-.245l2-3a1.168 1.168 0 0 0 .063-.108 5.036 5.036 0 0 0 0-4.894l-.895-1.789v-1.23c1.341-.944 5-3.934 5-8.534 0-5.3-5.019-11.384-5.231-11.64a.971.971 0 0 0 -.8-.36 1.006 1.006 0 0 0 -.776.412l-7.702 10.588h-10.982l-7.7-10.588a1.006 1.006 0 0 0 -.776-.412 1 1 0 0 0 -.8.36c-.214.256-5.233 6.34-5.233 11.64 0 4.595 3.659 7.59 5 8.534v1.23l-.895 1.789a5.036 5.036 0 0 0 0 4.894 1.168 1.168 0 0 0 .063.108l2 3a1 1 0 0 0 .232.245l3.19 2.392-.064.081c-2.332 3.012-5.526 7.135-5.526 11.727a20.414 20.414 0 0 0 1.158 6.677l-4.034-.669a4.355 4.355 0 0 0 -3.471 1.022 5.251 5.251 0 0 0 -1.653 3.97v2a1 1 0 0 0 1 1zm39-13.922a12.775 12.775 0 0 0 4.933-5.707c2.146-5.373 4.634-8.632 7.2-9.425a4.892 4.892 0 0 1 4.317.885c1.348.9 1.794 2.317 1.327 4.206-1.194 4.822-8.558 12.049-18.115 13.643a20.056 20.056 0 0 0 .338-3.602zm-19.78 11.922.75-3.757a3.171 3.171 0 0 1 6.05-.047l.76 3.8zm22.9-4.008a2.331 2.331 0 0 1 1.9.538 3.259 3.259 0 0 1 .98 2.47v1h-9.917a20.285 20.285 0 0 0 1.876-3.149zm-1.12-41.992c0 3.352-2.644 5.756-3.885 6.7l-2.488-2.488a5.748 5.748 0 0 0 1.172-1.2l1.754.877.894-1.79-1.761-.88c.043-.139.077-.288.112-.437l2.518-.839-.632-1.9-1.645.549a8.012 8.012 0 0 1 2.161-4.46 13.3 13.3 0 0 1 1.8 5.868zm-3.979-9.329c.321.442.714 1.009 1.126 1.659a9.9 9.9 0 0 0 -3.147 6.67 4.205 4.205 0 0 1 -1.808 3.777l-2.88-2.88zm-28.042 0 6.709 9.229-2.888 2.882a4.225 4.225 0 0 1 -1.8-3.782 9.893 9.893 0 0 0 -3.146-6.669c.412-.649.805-1.217 1.125-1.659zm-3.979 9.329a13.314 13.314 0 0 1 1.8-5.866 8 8 0 0 1 2.16 4.466l-1.645-.549-.632 1.9 2.518.839c.035.149.069.3.112.437l-1.761.88.894 1.79 1.754-.877a5.748 5.748 0 0 0 1.172 1.2l-2.49 2.49c-1.241-.947-3.882-3.34-3.882-6.71zm9.108 23.5.687-.892a1 1 0 0 0 -.2-1.406l-3.863-2.9-1.869-2.8a3.034 3.034 0 0 1 .027-3.052l1-2a1 1 0 0 0 .11-.45v-1.586l7.414-7.414h11.172l7.414 7.414v1.586a1 1 0 0 0 .1.447l1 2a3.034 3.034 0 0 1 .027 3.052l-1.869 2.8-3.858 2.901a1 1 0 0 0 -.2 1.406l.687.892c2.281 2.938 5.113 6.594 5.113 10.502a18.57 18.57 0 0 1 -4.45 12h-3.73l-.85-4.243a5.164 5.164 0 0 0 -9.95.047l-.84 4.196h-3.73a18.57 18.57 0 0 1 -4.45-12c0-3.908 2.832-7.564 5.108-10.5zm-13.108 21.5a3.259 3.259 0 0 1 .977-2.47 2.321 2.321 0 0 1 1.859-.544l5.205.865a20.285 20.285 0 0 0 1.876 3.149h-9.917z"/><path d="m57.222 37.628 1.559-1.253c-.074-.092-1.834-2.247-4.177-1.875-1.841.293-3.37 2.026-4.541 5.149l1.874.7c.872-2.327 1.929-3.7 2.975-3.874 1.163-.193 2.299 1.14 2.31 1.153z"/><path d="m29 35h-2a1 1 0 0 1 -2 0h-2a3 3 0 0 0 6 0z"/></g></svg>