<svg id="Capa_1" enable-background="new 0 0 514.906 514.906" height="512" viewBox="0 0 514.906 514.906" width="512" xmlns="http://www.w3.org/2000/svg"><g><g><path d="m109.96 129.379s-12.062-55.648-51.727-84.551c-7.939-5.785-4.181-18.332 5.638-18.585 42.076-1.081 105.186 6.124 121.679 56.247z" fill="#9facba"/></g><g><path d="m185.553 82.487-11.41 7.08c-21.44-40.18-77.9-46.31-116.7-45.36-6.96-5.95-3.03-17.72 6.43-17.96 42.08-1.09 105.18 6.12 121.68 56.24z" fill="#8d9ca8"/></g><g><path d="m285.466 164.845s12.062 55.648 51.727 84.551c7.939 5.785 4.181 18.332-5.638 18.585-42.076 1.081-105.186-6.124-121.679-56.247z" fill="#9facba"/></g><g><path d="m331.553 267.977c-2.68.07-5.44.11-8.28.1-.03-2.98-1.34-5.99-4.23-8.09-37.15-27-50.13-77.46-51.66-83.93l18.08-11.21s12.09 55.74 51.83 84.62c7.9 5.74 4.02 18.26-5.74 18.51z" fill="#8d9ca8"/></g><g><path d="m457.34 115.619h-5.06c-8.55 0-16.224-5.467-18.789-13.623-1.404-4.464-3.138-8.887-5.23-13.324-11.833-25.091-31.037-47.628-57.011-61.147-18.636-9.699-39.394-15.645-60.521-18.313-41.034-5.182-84.633 1.591-120.933 20.356-23.312 12.051-42.849 29.356-59.602 48.479-80.418 91.8-71.438 215.861-21.927 317.12 5 10.227-.119 22.52-10.885 26.22l-37.541 12.902c-20.223 6.95-33.801 25.975-33.801 47.358v10.946c0 8.181 6.632 14.813 14.813 14.813h42.39c16.033 0 31.741-4.527 45.316-13.059l15.831-9.951 15.831 9.951c13.574 8.533 29.282 13.059 45.315 13.059h42.39c8.181 0 14.813-6.632 14.813-14.813v-10.946c0-21.384-13.578-40.408-33.801-47.358l-47.761-16.415c-7.354-2.527-12.403-9.285-12.78-17.052-3.211-66.106 9.783-186.155 140.193-216.144 17.617-4.051 35.732-5.925 53.88-5.927l94.898-.083c17.4-.015 31.497-14.125 31.497-31.525-.001-17.41-14.115-31.524-31.525-31.524z" fill="#d9e7ec"/></g><g><path d="m488.863 147.147c0 17.4-14.1 31.51-31.5 31.52l-94.89.08c-18.15.01-36.27 1.88-53.88 5.93-130.41 29.99-143.41 150.04-140.2 216.15.38 7.76 5.43 14.52 12.78 17.05l47.77 16.41c20.22 6.95 33.8 25.98 33.8 47.36v10.95c0 8.179-6.631 14.81-14.81 14.81h-13.33c.02-.19.02-.38.02-.58v-24.01c0-13.57-8.62-25.64-21.45-30.05l-54.16-22.78c-7.34-2.52-12.4-9.25-12.78-17-3.22-66.08 9.86-213.91 140.31-243.91 17.61-4.05 40.33-7.04 58.48-7.05l94.9-.08c17.4-.01 31.49-14.12 31.49-31.52 0-4.51-.95-8.8-2.65-12.68 4.12 1.6 7.81 4.04 10.87 7.11 5.7 5.7 9.23 13.59 9.23 22.29z" fill="#c5d3dd"/></g><g><path d="m331.082 398.889c8.308 8.929 18.074 16.21 30.095 19.884 7.996 2.444 16.407 3.336 24.716 2.267 5.639-.725 11.198-2.236 16.358-4.638 9.817-4.569 18.029-12.959 22.102-22.972 8.417-20.694 1.958-51.643-23.67-55.524-.036-.005-.072-.011-.109-.016-6.076-.923-12.36-.184-18.345 1.001-25.754 5.1-55.1 16.109-79.377 2.418-2.338-1.318-5.022 1.077-4.013 3.564 1.33 3.277 2.545 6.183 2.545 6.183 6.781 17.666 16.737 33.904 29.698 47.833z" fill="#8ac9fe"/></g><g><path d="m424.353 393.427c-4.07 10.02-12.28 18.41-22.1 22.98-5.16 2.4-10.72 3.91-16.36 4.63-8.31 1.07-16.72.18-24.71-2.26-12.03-3.68-21.79-10.96-30.1-19.89-4.29-4.61-8.26-9.48-11.88-14.57 7.61 7.42 16.4 13.4 26.92 16.61 7.99 2.45 16.41 3.34 24.72 2.27 5.63-.73 11.19-2.24 16.35-4.64 9.82-4.57 18.03-12.96 22.11-22.97 4.29-10.57 4.71-23.8.69-34.74 17.79 9.08 21.65 34.67 14.36 52.58z" fill="#60b7ff"/></g><g><path d="m457.339 108.12h-5.06c-5.3 0-10.084-3.443-11.635-8.375-1.501-4.771-3.386-9.572-5.602-14.271-13.381-28.373-34.807-51.315-60.331-64.602-18.752-9.759-39.963-16.186-63.045-19.1-43.756-5.528-88.261 1.979-125.316 21.134-8.882 4.591-17.48 10.034-25.879 16.359-11.082-7.075-24.627-12.38-40.6-15.87l-1.447-.31c-4.051-.865-8.037 1.715-8.903 5.765-.867 4.051 1.714 8.037 5.765 8.903l1.416.303c12.117 2.647 22.575 6.436 31.355 11.338-7.966 7.016-15.779 14.891-23.505 23.71-6.54 7.466-12.553 15.195-18.061 23.17-8.304-18.669-22.111-41.674-43.841-57.508-1.458-1.062-1.295-2.439-1.069-3.166.257-.826.897-1.819 2.482-1.86 6.307-.159 12.526-.114 18.483.135 4.136.188 7.634-3.039 7.809-7.178.175-4.138-3.039-7.635-7.177-7.809-6.294-.266-12.856-.315-19.5-.143-7.689.197-14.134 5.062-16.418 12.392-2.31 7.413.263 15.166 6.556 19.752 22.734 16.566 35.954 43.002 42.774 60.93-20.999 35.911-32.272 76.438-33.58 121.021-1.573 53.597 11.747 110.867 38.519 165.621 1.455 2.976 1.558 6.303.288 9.369-1.276 3.083-3.717 5.378-6.873 6.463l-37.541 12.902c-23.246 7.989-38.863 29.871-38.863 54.451v10.945c0 12.304 10.009 22.313 22.312 22.313h42.39c17.468 0 34.519-4.914 49.307-14.21l11.839-7.441 11.839 7.441c14.789 9.296 31.839 14.21 49.307 14.21h42.39c12.303 0 22.313-10.01 22.313-22.313v-10.945c0-24.58-15.618-46.462-38.863-54.451l-47.762-16.415c-4.463-1.534-7.496-5.586-7.726-10.322-.234-4.82-.367-9.687-.394-14.463-.023-4.127-3.377-7.457-7.499-7.457-.015 0-.029 0-.043 0-4.142.023-7.481 3.4-7.458 7.543.028 4.988.167 10.071.411 15.105.53 10.904 7.53 20.238 17.833 23.779l47.762 16.415c17.189 5.907 28.738 22.089 28.738 40.266v10.945c0 4.032-3.281 7.313-7.313 7.313h-42.39c-14.64 0-28.93-4.118-41.324-11.909l-15.831-9.95c-2.44-1.533-5.543-1.533-7.982 0l-15.831 9.95c-12.395 7.791-26.684 11.909-41.324 11.909h-42.39c-4.032 0-7.313-3.281-7.313-7.313v-10.945c0-18.177 11.549-34.358 28.739-40.266l37.541-12.902c7.175-2.466 12.955-7.901 15.856-14.911 2.895-6.993 2.65-14.901-.672-21.696-25.706-52.576-38.5-107.415-36.999-158.591 1.698-57.858 21.156-108.423 57.832-150.29 18.405-21.011 37.182-36.306 57.404-46.76 34.384-17.774 75.777-24.724 116.549-19.577 21.314 2.692 40.827 8.588 57.998 17.524 22.633 11.781 41.7 32.271 53.689 57.693 1.927 4.087 3.563 8.251 4.86 12.375 3.551 11.289 13.977 18.874 25.943 18.874h5.06c13.248 0 24.025 10.777 24.025 24.024 0 13.236-10.768 24.014-24.004 24.024l-94.894.083c-19.221.002-37.913 2.061-55.559 6.117-107.476 24.718-138.054 108.22-144.78 173.918-.422 4.12 2.577 7.803 6.697 8.225 4.116.413 7.803-2.576 8.225-6.697 3.878-37.88 14.759-70.079 32.341-95.703 3.383-4.931 7.023-9.608 10.906-14.041 9.685 9.903 22.503 17.629 38.391 23.084 18.244 6.265 40.125 9.429 65.143 9.429 2.605 0 5.247-.034 7.919-.104 7.69-.197 14.135-5.062 16.419-12.394 2.31-7.412-.264-15.165-6.556-19.749-18.325-13.354-30.468-33.123-38.063-49.681 2.216-.584 4.452-1.144 6.722-1.667 16.545-3.805 34.107-5.734 52.205-5.736l94.898-.083c21.5-.019 38.991-17.524 38.991-39.024.001-21.519-17.506-39.024-39.025-39.024zm-124.562 147.338c1.457 1.062 1.295 2.438 1.068 3.165-.257.826-.896 1.819-2.482 1.86-26.175.669-49.617-2.273-67.805-8.518-13.703-4.706-24.631-11.317-32.75-19.733 16.041-14.918 35.492-26.34 58.186-34.169 8.308 18.651 22.094 41.59 43.783 57.395z"/><path d="m368.444 103.239c4.143 0 7.5-3.357 7.5-7.5v-17.978c0-4.143-3.357-7.5-7.5-7.5s-7.5 3.357-7.5 7.5v17.978c0 4.142 3.357 7.5 7.5 7.5z"/><path d="m401.842 330.496c-.029-.005-.086-.013-.142-.021-7.903-1.2-15.729.03-20.928 1.059-4.692.93-9.548 2.061-14.244 3.154-20.927 4.875-42.564 9.917-59.992.088-3.813-2.15-8.591-1.652-11.887 1.246-3.305 2.907-4.413 7.598-2.759 11.673 1.197 2.95 2.303 5.604 2.531 6.151 7.242 18.836 17.729 35.709 31.17 50.153 10.274 11.041 21.197 18.22 33.394 21.947 6.635 2.027 13.282 3.045 19.851 3.045 2.687 0 5.361-.17 8.015-.512 6.629-.853 12.876-2.629 18.565-5.277 11.699-5.444 21.134-15.266 25.885-26.946 6.166-15.16 5.236-33.598-2.37-46.972-5.978-10.513-15.358-17.012-27.089-18.788zm15.565 60.107c-3.291 8.09-10.139 15.192-18.319 19-4.292 1.997-9.053 3.343-14.149 3.999-7.015.9-14.271.229-21.568-2.002-9.604-2.935-18.369-8.764-26.797-17.82-11.151-11.984-20.057-25.841-26.512-41.239 19.656 6.126 40.831 1.191 59.871-3.244 4.787-1.115 9.308-2.169 13.755-3.049 4.094-.811 10.181-1.794 15.762-.943.04.006.071.012.112.017 7.16 1.085 12.654 4.912 16.331 11.378 5.337 9.383 5.945 23.008 1.514 33.903z"/></g></g></svg>