<svg id="Capa_1" enable-background="new 0 0 512 512" height="512" viewBox="0 0 512 512" width="512" xmlns="http://www.w3.org/2000/svg"><g><g><g><path d="m386.148 451.88c5.395 6.428.828 16.235-7.561 16.235h-50.663l-33.803-92.374c-42.836 6.826-111.822 26.987-159.593 11.986-12.037 14.224-25.036 21.355-25.036 21.355v23.874l13.528 26.405c2.044 4.006-.855 8.753-5.351 8.753h-45.384c-22.89-15.471-31.562-86.733-31.368-112.576-7.439-10.566-60.362-89.729-15.677-173.777 44.686-84.048 117.677-50.02 134.875-50.02h211.207l28.459 177.517c-8.563 16.278-41.16 53.534-43.49 64.018 4.66 27.937 10.833 55.977 10.833 55.977z" fill="#a29aa5"/><g fill="#8c818f"><path d="m367.123 429.254s-6.173-28.04-10.833-55.977c2.33-10.484 34.927-47.74 43.49-64.018l-28.459-177.517s-8.744 0-22.679 0l27.313 174.068c-8.563 16.632-41.16 54.697-43.49 65.409 4.66 28.544 10.832 57.192 10.832 57.192l19.027 23.115c5.395 6.567.828 16.588-7.562 16.588h23.824c8.389 0 12.957-9.807 7.561-16.235z"/><path d="m294.121 375.74c-42.836 6.826-111.822 26.987-159.593 11.986 4.322-5.109 8.522-11.128 11.956-18.066 43.715 8.338 100.152-5.324 140.771-12.691z"/><path d="m120.737 263.804c-7.977.505-12.688 9.261-8.612 16.136 44.015 74.246-10.136 111.746-24.753 120.145-2.132 1.225-3.446 3.487-3.446 5.947v24.556c0 1.558.37 3.094 1.081 4.48l12.446 24.296c2.048 3.998-.855 8.75-5.347 8.75h25.563c4.492 0 7.399-4.755 5.351-8.753l-13.528-26.405v-23.874s85.824-47.06 20.716-140.739c-2.134-3.07-5.741-4.775-9.471-4.539z"/></g><g fill="#a29aa5"><path d="m274.274 48.093c-14.578-17.939-41.309 25.717-10.866 50.908 25.23 20.877 61.201-.356 61.201-.356l11.678-19.21c-25.013 6.845-51.834-18.817-62.013-31.342z"/><path d="m479.681 48.093c14.578-17.939 41.309 25.717 10.866 50.908-25.23 20.877-61.201-.356-61.201-.356l-11.678-19.21c25.013 6.845 51.835-18.817 62.013-31.342z"/></g><path d="m421.815 68.244c-18.894-10.96-69.847-9.637-89.591 0-37.572 18.338-75.286 103.057-61.692 144.828h212.976c13.592-41.771-25.738-123.972-61.693-144.828z" fill="#b5adb7"/><ellipse cx="376.978" cy="286.412" fill="#b5adb7" rx="76.358" ry="40.768"/><g><g fill="#f7f3f1"><path d="m315.455 328.783h-19.534c-4.364 0-7.902-3.538-7.902-7.902v-52.376h35.338v52.376c0 4.364-3.538 7.902-7.902 7.902z"/><path d="m458.034 328.783h-19.534c-4.364 0-7.902-3.538-7.902-7.902v-52.376h35.338v52.376c.001 4.364-3.537 7.902-7.902 7.902z"/></g></g><path d="m492.514 223.045v40.66c0 14.092-11.424 25.516-25.516 25.516h-40.652c-2.747 0-5.445-.791-7.72-2.331-11.029-7.466-25.632-12.016-41.653-12.016-16.02 0-30.621 4.549-41.642 12.013-2.276 1.542-4.975 2.333-7.724 2.333h-40.66c-14.091 0-25.505-11.424-25.505-25.505v-40.67c0-14.081 11.414-25.505 25.505-25.505h5.068c3.771 0 7.041-2.401 8.379-5.917 0-.02.01-.041.02-.061 5.63-14.704 23.881-21.387 40.772-14.919 7.511 2.871 13.478 7.868 17.3 13.826 2.841 4.404 7.715 7.071 12.957 7.071h11.056c5.242 0 10.127-2.667 12.957-7.071 3.822-5.957 9.789-10.954 17.31-13.826 16.881-6.468 35.142.215 40.762 14.919l.569 1.138c1.483 2.966 4.514 4.839 7.83 4.839h5.079c14.089 0 25.508 11.42 25.508 25.506z" fill="#968d97"/></g></g><g><path d="m222.942 381.31c-20.944 3.295-50.34 6.784-75.594 1.875 5.966-8.979 11.068-19.892 13.421-32.733 5.221-28.497-4.197-59.275-27.992-91.478-2.462-3.331-7.156-4.034-10.487-1.575-3.331 2.461-4.036 7.156-1.575 10.487 21.234 28.737 29.746 55.607 25.302 79.864-3.139 17.133-12.697 32.002-25.323 43.607-7.95 7.313-14.664 11.079-14.743 11.123-2.4 1.317-3.892 3.837-3.892 6.574v23.869c0 1.189.283 2.361.825 3.419l12.415 24.233h-40.4c-16.804-14.721-26.627-75.332-26.404-104.998.012-1.565-.466-3.094-1.367-4.373-4.13-5.865-18.231-27.309-26.274-56.966-10.496-38.702-6.765-75.354 11.09-108.937 14.079-26.481 32.611-43.176 55.083-49.623 3.981-1.142 6.282-5.294 5.14-9.275s-5.293-6.28-9.275-5.14c-26.531 7.611-48.127 26.788-64.188 56.997-44.029 82.812 1.757 160.348 14.801 179.604.155 13.844 2.393 37.383 7.192 59.417 6.515 29.911 15.755 49.09 27.463 57.004 1.24.838 2.702 1.286 4.199 1.286h45.375c4.738 0 9.044-2.411 11.518-6.45 2.476-4.043 2.667-8.98.505-13.218l-12.7-24.79v-17.88c6.988-4.602 14.053-10.602 20.004-17.019 29.305 7.697 64.098 3.704 88.212-.09 4.091-.643 6.885-4.482 6.241-8.573-.643-4.091-4.478-6.881-8.572-6.241z"/><path d="m475.727 124.671c-1.524-3.205-3.11-6.337-4.743-9.395 9.181-1.17 17.332-4.663 24.334-10.463 13.61-11.263 19.397-27.825 15.48-44.303-2.928-12.316-10.637-21.602-19.641-23.659-6.418-1.467-12.728.923-17.307 6.557-8.072 9.936-21.945 22.543-35.965 27.524-4.119-3.697-8.248-6.78-12.31-9.136-21.418-12.427-75.033-10.782-96.624-.252-4.49 2.192-9.044 5.269-13.567 9.112-13.798-5.153-27.383-17.551-35.261-27.247-4.575-5.633-10.88-8.023-17.298-6.559-9.002 2.054-16.711 11.338-19.64 23.653-3.92 16.48 1.867 33.045 15.481 44.312 6.724 5.56 14.509 9 23.242 10.306-1.455 2.795-2.869 5.659-4.231 8.591-.087.186-.169.373-.255.56h-117.255c-5.288 0-20.349-4.902-38.77-6.385-4.118-.323-7.744 2.745-8.075 6.873-.332 4.128 2.745 7.743 6.873 8.075 17.79 1.432 32.162 6.433 39.973 6.433h111.012c-8.645 23.228-12.411 46.023-10.371 63.72-4.277 5.565-6.829 12.522-6.829 20.067v40.661c0 15.997 11.443 29.367 26.573 32.366v24.788c0 8.49 6.907 15.397 15.397 15.397h19.526c6.499 0 12.059-4.048 14.318-9.749 12.665 4.87 27.543 7.683 43.164 8.096-.119.158-.239.318-.358.476-13.627 18.098-22.058 29.545-23.613 36.542-.209.94-.235 1.911-.077 2.861 4.637 27.793 10.839 56.054 10.901 56.336.26 1.184.804 2.287 1.584 3.215l19.018 22.616c.851 1.015.575 2.03.335 2.544-.291.624-.9 1.367-2.147 1.367h-45.418c-2.734-7.473-28.334-77.442-38.092-104.11-1.423-3.889-5.731-5.887-9.619-4.465-3.889 1.423-5.888 5.73-4.465 9.619l3.015 8.24c-6.632 1.205-26.691 5.188-26.691 5.188-4.062.804-6.704 4.749-5.901 8.811s4.743 6.703 8.811 5.901c0 0 21.787-4.329 29.008-5.603l31.651 86.496c1.082 2.956 3.894 4.922 7.042 4.922h50.659c6.822 0 12.853-3.841 15.737-10.023 2.888-6.189 1.956-13.285-2.44-18.528l-17.831-21.204c-1.387-6.438-6.208-29.188-10.068-52.014 2.916-6.858 19.305-27.844 28.228-39.907 11.5-1.177 22.365-3.683 31.962-7.373 2.258 5.7 7.815 9.748 14.309 9.748h19.526c8.495 0 15.407-6.907 15.407-15.397v-24.79c15.128-3.005 26.568-16.376 26.568-32.373v-40.651c0-7.513-2.529-14.444-6.773-19.997 2.421-21.411-3.859-49.706-17.499-78.39zm9.762-71.805c1.32-1.624 2-1.469 2.329-1.394 2.31.528 6.574 4.867 8.39 12.507 4.461 18.767-10.736 37.383-33.771 36.714-4.281-6.659-8.775-12.766-13.373-18.177 18.905-8.94 33.312-25.818 36.425-29.65zm-149.962 22.157c17.39-8.48 65.522-10.117 82.522-.253 27.595 16.005 59.885 75.158 60.664 117.442-3.643-1.388-7.589-2.155-11.713-2.155h-5.078c-.478 0-.908-.266-1.123-.695l-.414-.827c-3.557-8.988-10.801-15.866-20.439-19.394-9.402-3.441-20.005-3.256-29.85.516-8.693 3.319-16.131 9.278-20.94 16.774-1.459 2.271-3.944 3.626-6.647 3.626h-11.054c-2.697 0-5.184-1.359-6.643-3.62-4.81-7.498-12.244-13.457-20.926-16.776-9.858-3.775-20.464-3.959-29.862-.519-9.765 3.574-17.076 10.59-20.585 19.757 0 0-.035.091-.051.138-.206.485-.668 1.022-1.344 1.022h-5.067c-4.136 0-8.094.772-11.746 2.168.29-43.854 32.818-103.791 60.296-117.204zm-77.752-11.05c1.816-7.638 6.078-11.975 8.386-12.501.325-.074 1.004-.229 2.322 1.393 3.028 3.728 17.029 20.143 35.489 29.195-4.765 5.484-9.399 11.752-13.784 18.662-22.173-.022-36.797-18.315-32.413-36.749zm57.699 257.296h-19.526c-.224 0-.4-.176-.4-.4v-24.155h20.336v24.155c0 .225-.18.4-.41.4zm107.628-10.54c-10.046 4.546-22.189 7.473-35.277 8.512-.114.006-.227.019-.34.029-3.441.264-6.946.4-10.493.4-17.172 0-33.339-3.162-46.11-8.941v-14.259c3.115-.47 6.069-1.613 8.674-3.378 10.208-6.914 23.5-10.721 37.429-10.721 13.927 0 27.224 3.809 37.441 10.725 2.607 1.764 5.561 2.907 8.677 3.376v14.257zm34.922 10.54h-19.526c-.224 0-.4-.176-.4-.4v-24.155h20.336v24.155c0 .225-.18.4-.41.4zm26.978-57.563c0 9.932-8.08 18.012-18.012 18.012h-40.643c-1.293 0-2.509-.36-3.515-1.042-12.673-8.578-28.955-13.302-45.848-13.302-16.895 0-33.174 4.724-45.839 13.301-1.007.682-2.223 1.043-3.517 1.043h-40.651c-9.926 0-18.002-8.075-18.002-18.002v-40.661c0-9.926 8.075-18.002 18.002-18.002h5.067c6.859 0 12.899-4.217 15.385-10.744.021-.055.041-.11.061-.166 1.955-4.999 6.101-8.874 11.689-10.92 5.999-2.195 12.868-2.039 19.349.443 5.717 2.186 10.569 6.045 13.673 10.883 4.242 6.577 11.441 10.504 19.255 10.504h11.054c7.83 0 15.031-3.93 19.266-10.519 3.095-4.823 7.949-8.682 13.678-10.87 6.471-2.479 13.34-2.635 19.338-.441 5.632 2.061 9.796 5.979 11.728 11.032.088.23.188.456.298.678l.568 1.136c2.77 5.542 8.341 8.984 14.536 8.984h5.078c9.926 0 18.002 8.075 18.002 18.002z"/><path d="m317.658 136.41c0 4.141 3.357 7.498 7.498 7.498s7.498-3.357 7.498-7.498v-9.284c0-4.141-3.357-7.498-7.498-7.498s-7.498 3.357-7.498 7.498z"/><path d="m428.821 143.909c4.141 0 7.498-3.357 7.498-7.498v-9.284c0-4.141-3.357-7.498-7.498-7.498s-7.498 3.357-7.498 7.498v9.284c0 4.14 3.357 7.498 7.498 7.498z"/><path d="m332.488 200.736c-2.485-3.313-7.184-3.984-10.498-1.501-3.313 2.485-3.985 7.185-1.501 10.498l2.916 3.888c1.473 1.964 3.725 3 6.005 3 1.566 0 3.144-.488 4.493-1.5 3.313-2.485 3.985-7.185 1.501-10.498z"/><path d="m431.981 199.236c-3.313-2.484-8.012-1.813-10.498 1.5l-2.916 3.888c-2.485 3.313-1.814 8.013 1.5 10.498 1.349 1.012 2.928 1.5 4.493 1.5 2.28 0 4.531-1.036 6.005-3l2.916-3.888c2.485-3.313 1.813-8.013-1.5-10.498z"/></g></g></svg>