<svg id="Capa_1" enable-background="new 0 0 512 512" height="512" viewBox="0 0 512 512" width="512" xmlns="http://www.w3.org/2000/svg"><g><g><g><path d="m172.451 40.122h-112.731c-28.841 0-52.22 23.38-52.22 52.22v82.524c0 14.854 6.979 28.845 18.846 37.779l28.211 21.24 32.034-23.011-34.227-21.734c-6.657-4.227-10.69-11.565-10.69-19.451v-63.827c0-10.318 8.364-18.682 18.682-18.682h81.593c19.922 0 36.073-16.15 36.073-36.073v-5.412c.001-3.078-2.494-5.573-5.571-5.573z" fill="#f0e9e6"/><path d="m41.67 112.315v54.71l-33 18.3c-.77-3.4-1.17-6.899-1.17-10.459v-62.551z" fill="#8c818f"/><path d="m127 40.125v47.05h-58.7l-6.53-47.05z" fill="#8c818f"/><path d="m334.013 309.523c49.34-32.709 71.175-92.993 54.512-149.963-47.314 0-104.326 0-104.326 0s-23.096 18.523-52.872 9.912c-21.54-6.229-56.594-32.704-89.943-32.704-4.118 0-5.528 0-5.528 0-47.066 0-85.22 28.386-85.22 83.942v20.677c0 62.937 31.302 100.969 83.207 114.059 6.643 22.455-5.753 73.191-17.92 100.897-3.216 7.325 2.128 15.536 10.127 15.536h95.101c6.119 0 11.079-4.96 11.079-11.079 0-4.429-2.637-8.432-6.707-10.18l-41.298-17.739c-3.323-1.427-4.744-5.371-3.087-8.586 6.816-13.224 22.984-46.105 29.776-72.961 1.497-5.917 2.567-12.689 3.002-20.031 16.83 2.782 32.718 3.455 47.563 2.311l-6.527 18.979c-2.409 7.006-2.009 14.673 1.118 21.389l43.913 94.329c1.324 2.844 4.57 4.242 7.546 3.25l3.136-1.045c13.678-4.558 20.71-19.68 15.381-33.076l-25.975-65.298c-.869-2.185-.672-4.65.534-6.669z" fill="#a29aa5"/><path d="m388.525 159.559c-5.986 0-12.128 0-18.289 0 11.178 55.601-10.902 112.469-57.175 144.229l-33.408 57.925c-1.206 2.09-1.403 4.642-.534 6.905l25.975 67.604c4.016 10.453 1.009 21.918-6.57 28.954l1.459 3.133c1.324 2.844 4.57 4.242 7.546 3.25l3.136-1.045c13.678-4.558 20.71-19.68 15.381-33.076l-25.975-65.298c-.869-2.185-.672-4.65.534-6.669l33.408-55.949c49.34-32.708 71.175-92.992 54.512-149.963z" fill="#8c818f"/><path d="m269.84 309.28-8.361 24.333c-14.85 1.15-30.733.469-47.563-2.311.46-7.88.194-16.422-1.046-25.282 16.88 4.04 37.9 5.27 56.97 3.26z" fill="#8c818f"/><path d="m225.522 450.619-41.298-17.739c-3.323-1.427-4.744-5.371-3.087-8.586 6.816-13.224 22.984-46.105 29.776-72.961 8.579-33.918 3.091-95.888-55.211-132.715-1.82-1.15-4.025-1.532-6.118-1.029-6.192 1.489-8.188 9.34-3.422 13.565 42.773 37.926 46.388 91.916 38.702 122.928-6.793 27.405-22.961 60.959-29.776 74.453-1.657 3.281-.236 7.304 3.087 8.761l41.298 18.101c4.069 1.784 6.707 5.869 6.707 10.388 0 2.245-.649 4.333-1.756 6.092h16.726c6.119 0 11.079-4.96 11.079-11.079 0-4.428-2.637-8.431-6.707-10.179z" fill="#8c818f"/><g fill="#ebe1dc"><path d="m227.511 69.381c4.696 31.532 19.602 59.051 46.548 60.771l17.384-25.58c-4.198-28.884-34.229-40.924-63.932-35.191z"/><path d="m504.5 69.381c-4.696 31.532-19.602 59.051-46.548 60.771l-17.384-25.58c4.198-28.884 34.229-40.924 63.932-35.191z"/></g><path d="m437.549 78.635c-46.68-20.026-94.171-20.354-142.517.08-21.94 9.273-36.956 29.885-38.975 53.619-2.382 28.009-3.677 64.893 3.922 79.934 10.952 21.676 54.643 51.731 78.201 57.634 13.495 3.381 42.155 3.381 55.65 0 23.558-5.903 67.249-35.958 78.201-57.634 7.652-15.145 6.286-52.437 3.872-80.515-2.011-23.41-16.762-43.855-38.354-53.118z" fill="#f0e9e6"/><g fill="#8c818f"><path d="m440.977 146.514c-.436-.787-.904-1.538-1.399-2.256-11.853-17.159-38.254-13.843-46.315 5.39l-4.738 11.304c-4.38 10.45-1.702 22.525 6.684 30.144l4.141 3.762c13.982 12.703 36.463 7.343 43.034-10.367 4.641-12.507 4.235-27.795-1.407-37.977z"/><path d="m291.034 146.514c.436-.787.904-1.538 1.399-2.256 11.853-17.159 38.254-13.843 46.315 5.39l4.738 11.304c4.38 10.45 1.702 22.525-6.684 30.144l-4.141 3.762c-13.982 12.703-36.463 7.343-43.034-10.367-4.641-12.507-4.235-27.795 1.407-37.977z"/><path d="m476.015 133.081c-.037-.443-.074-.89-.111-1.329-2.012-23.409-16.762-43.854-38.354-53.117-46.68-20.026-94.171-20.354-142.517.08-21.94 9.273-36.956 29.885-38.975 53.619-.021.247-.041.499-.062.748 44.866-45.063 88.472-32.891 110.01-7.214 21.537-25.678 65.143-37.85 110.009 7.213z"/><ellipse cx="366.006" cy="230.972" rx="22.124" ry="18.705"/></g></g></g><g><path d="m505.921 62.016c-22.758-4.397-44.348.715-58.111 13.376-2.347-1.342-4.781-2.567-7.305-3.65-48.817-20.941-98.742-20.919-148.393.064-2.653 1.121-5.208 2.397-7.669 3.8-13.754-12.822-35.434-18.015-58.355-13.591-3.945.761-6.589 4.496-5.997 8.47 3.979 26.708 14.144 47.064 28.84 58.053-.31 2.396-.374 3.515-.409 3.913-1.047 11.673-1.565 22.283-1.753 31.78-4.504-.052-8.976-.698-13.356-1.965-6.742-1.95-15.669-6.447-25.121-11.208-19.271-9.707-43.254-21.788-66.913-21.788-2.874.423-41.373-3.73-70.835 23.089-7.973 7.258-14.265 15.967-18.806 25.89-1.652-2.497-2.569-5.453-2.569-8.559v-63.83c0-6.165 5.02-11.18 11.19-11.18h81.59c24.024 0 43.57-19.545 43.57-43.57v-5.42c0-7.207-5.863-13.07-13.07-13.07h-112.729c-32.93.001-59.72 26.791-59.72 59.72v34.92c0 4.142 3.358 7.5 7.5 7.5s7.5-3.358 7.5-7.5v-7.445h19.17v42.793l-19.17 10.631v-10.979c0-4.142-3.358-7.5-7.5-7.5s-7.5 3.358-7.5 7.5v12.61c0 3.834.432 7.626 1.222 11.325.054.466.151.932.296 1.389 2.953 12.26 10.094 23.355 20.321 31.057l21.291 16.03v6.718c0 62.095 29.918 104.576 84.387 120.116 1.49 9.345.469 23.904-2.938 40.949-3.566 17.841-9.37 36.857-15.529 50.876-5.397 12.323 3.638 26.049 17 26.049h95.1c10.245 0 18.58-8.335 18.58-18.58 0-7.432-4.415-14.132-11.25-17.071l-40.056-17.206c12.003-23.46 28.936-60.461 32.241-86.65 10.242 1.322 20.319 1.904 30.13 1.74l-2.937 8.538c-3.057 8.889-2.555 18.476 1.413 26.994l43.917 94.344c2.941 6.284 10.122 9.374 16.728 7.181l3.111-1.044c8.589-2.857 15.425-8.95 19.247-17.157 3.825-8.213 4.09-17.375.744-25.802l-25.979-65.352 32.548-54.505c14.074-9.565 26.128-21.357 35.897-35.102 7.739-.376 14.927-1.218 20.168-2.531 25.438-6.373 71.165-37.958 83.074-61.528 1.32-2.615 2.448-5.781 3.354-9.41 1.002-4.019-1.442-8.09-5.462-9.093-4.017-1.005-8.089 1.441-9.093 5.461-.635 2.548-1.372 4.661-2.189 6.279-9.879 19.552-51.49 48.269-73.33 53.741-12.397 3.108-39.634 3.099-52.004 0-21.839-5.472-63.45-34.189-73.329-53.741-5.06-10.014-6.292-36.303-3.43-72.415 18.446-17.824 38.049-26.803 56.827-26.007 15.309.653 29.957 8.024 40.189 20.224 1.425 1.699 3.528 2.68 5.746 2.68s4.321-.981 5.746-2.68c10.232-12.2 24.881-19.571 40.189-20.224 18.765-.811 38.379 8.182 56.823 26.004.971 12.219 1.49 23.352 1.535 33.126.02 4.13 3.373 7.465 7.499 7.465h.035c4.143-.019 7.485-3.393 7.466-7.535-.05-10.889-.663-23.352-1.81-37.04-.001-.01.001-.02 0-.03-.058-.668-.137-1.918-.385-3.939 14.678-10.984 24.834-31.333 28.815-58.03.592-3.971-2.053-7.706-5.997-8.468zm-269.663 13.713c13.91-1.169 26.834 2.085 35.668 8.916-8.364 7.54-14.833 16.954-18.865 27.497-7.668-8.151-13.525-20.771-16.803-36.413zm-116.758 3.947h-44.669l-4.448-32.05h49.117zm51.02-28.566c0 15.754-12.816 28.57-28.57 28.57h-7.45v-32.06h36.02zm-155.52 41.23c0-23.157 17.693-42.256 40.269-44.497l4.421 31.854c-13.784.349-24.951 11.388-25.494 25.118h-19.196zm2.609 96.604 17.995-9.979c1.887 5.95 5.578 11.206 10.669 15.057-1.719 6.907-2.75 14.235-3.044 21.948l-12.367-9.311c-6.054-4.559-10.609-10.759-13.253-17.715zm318.748 88.232c5.234 1.312 12.405 2.153 20.13 2.53-7.674 9.015-16.582 16.912-26.62 23.561-.936.62-1.721 1.443-2.297 2.407l-33.42 55.967c-2.376 4.002-2.767 8.966-1.049 13.271l25.977 65.295c1.806 4.548 1.663 9.495-.402 13.929-2.063 4.428-5.75 7.715-10.402 9.263l-1.995.669-43.411-93.255c-5.464-11.736 1.737-20.029 5.705-34.765l16.562-48.157c1.347-3.917-.736-8.184-4.653-9.531-3.921-1.347-8.186.738-9.532 4.653l-14.931 43.416c-11.083.535-22.605.01-34.388-1.567.083-14.129-2.086-28.681-6.486-42.303-9.725-30.106-29.956-55.063-58.508-72.172-3.553-2.128-8.159-.974-10.289 2.579-2.129 3.553-.975 8.159 2.579 10.289 25.753 15.432 43.23 36.936 51.944 63.915 6.755 20.913 7.343 44.302 2.769 62.322-6.606 26.131-22.598 58.612-29.165 71.361-1.74 3.374-2.003 7.357-.724 10.929 1.281 3.574 4.016 6.485 7.51 7.989l41.297 17.739c3.577 1.538 2.457 6.87-1.407 6.87h-95.1c-2.584 0-4.306-2.642-3.263-5.023 12.429-28.289 25.685-80.88 18.246-106.043-.751-2.542-2.789-4.498-5.358-5.146-50.732-12.795-77.546-49.718-77.546-106.778v-20.68c0-24.053 7.785-43.852 22.512-57.259 24.479-22.282 58.117-18.811 60.738-19.181 20.095 0 41.383 10.723 60.166 20.185 10.529 5.303 19.622 9.884 27.7 12.22 5.765 1.668 11.653 2.507 17.584 2.553.524 16.759 2.678 28.946 6.456 36.422 11.907 23.568 57.633 55.153 83.071 61.526zm74.944-181.698c-16.777.715-32.888 7.711-45.296 19.465-12.408-11.754-28.518-18.749-45.296-19.465-12.727-.538-30.776 2.313-51.085 16.334 5.967-11.564 15.857-20.918 28.327-26.189 45.746-19.333 91.72-19.367 136.639-.096 11.496 4.932 21.68 13.64 28.107 26.5-20.436-14.21-38.603-17.095-51.396-16.549zm67.751 16.556c-3.979-10.562-10.409-20.001-18.733-27.559 8.825-6.71 21.656-9.9 35.43-8.746-3.264 15.575-9.082 28.156-16.697 36.305z"/><path d="m425.509 208.345c11.03-2.687 19.967-10.629 23.906-21.246 5.512-14.853 4.774-32.209-1.877-44.217-6.411-11.585-18.838-18.548-32.898-17.083-12.586 1.312-23.429 9.339-28.295 20.95l-4.737 11.303c-5.596 13.351-2.156 28.86 8.558 38.594l4.141 3.762c6.39 5.805 14.621 8.916 23.056 8.916 2.711.001 5.447-.321 8.146-.979zm-21.116-19.038-4.142-3.763c-6.021-5.471-7.955-14.189-4.81-21.693l4.737-11.304c2.788-6.652 8.775-11.075 16.016-11.829.692-.072 1.38-.108 2.061-.108 6.821 0 12.849 3.56 16.16 9.537 4.481 8.09 4.869 21.14.938 31.734-2.237 6.028-7.119 10.361-13.394 11.89-6.343 1.545-12.743-.081-17.566-4.464z"/><path d="m424.417 171.052v-3.162c0-4.142-3.357-7.5-7.5-7.5s-7.5 3.358-7.5 7.5v3.162c0 4.142 3.357 7.5 7.5 7.5s7.5-3.358 7.5-7.5z"/><path d="m350.403 158.053-4.738-11.303c-4.866-11.611-15.707-19.639-28.294-20.95-13.771-1.432-26.35 5.249-32.897 17.08-6.653 12.008-7.391 29.365-1.878 44.22 3.938 10.616 12.874 18.558 23.903 21.245 2.701.658 5.436.98 8.149.98 8.434 0 16.667-3.111 23.057-8.916l4.14-3.762c10.713-9.733 14.152-25.242 8.558-38.594zm-18.646 27.492-4.14 3.762c-4.824 4.381-11.226 6.009-17.567 4.464-6.274-1.529-11.156-5.863-13.393-11.89-3.931-10.594-3.543-23.643.938-31.734 3.273-5.912 9.273-9.536 16.16-9.536.681 0 1.369.036 2.061.108 7.24.754 13.227 5.176 16.015 11.829l4.738 11.303c3.144 7.505 1.212 16.223-4.812 21.694z"/><path d="m315.092 160.39c-4.143 0-7.5 3.358-7.5 7.5v3.162c0 4.142 3.357 7.5 7.5 7.5s7.5-3.358 7.5-7.5v-3.162c0-4.142-3.357-7.5-7.5-7.5z"/><path d="m366.005 257.177c16.334 0 29.623-11.755 29.623-26.205s-13.289-26.205-29.623-26.205c-16.335 0-29.624 11.755-29.624 26.205s13.289 26.205 29.624 26.205zm0-37.409c7.927 0 14.623 5.131 14.623 11.205s-6.696 11.205-14.623 11.205-14.624-5.131-14.624-11.205 6.697-11.205 14.624-11.205z"/></g></g></svg>